STARTFONT 2.1
COMMENT
COMMENT Converted from OpenType font "Aller_Rg.ttf" by "otf2bdf 3.0".
COMMENT
FONT -FreeType-Aller-Medium-R-Normal--19-140-100-100-P-93-ISO10646-1
SIZE 14 100 100
FONTBOUNDINGBOX 31 24 -3 -5
STARTPROPERTIES 19
FOUNDRY "FreeType"
FAMILY_NAME "Aller"
WEIGHT_NAME "Medium"
SLANT "R"
SETWIDTH_NAME "Normal"
ADD_STYLE_NAME ""
PIXEL_SIZE 19
POINT_SIZE 140
RESOLUTION_X 100
RESOLUTION_Y 100
SPACING "P"
AVERAGE_WIDTH 93
CHARSET_REGISTRY "ISO10646"
CHARSET_ENCODING "1"
FONT_ASCENT 17
FONT_DESCENT 4
COPYRIGHT "-FreeType-Aller-Medium-R-Normal--19-140-100-100-P-93-ISO10646-1"
_OTF_FONTFILE "Aller_Rg.ttf"
_OTF_PSNAME "Aller"
ENDPROPERTIES
CHARS 625
STARTCHAR 0020
ENCODING 32
SWIDTH 257 0
DWIDTH 5 0
BBX 0 0 0 0
BITMAP
ENDCHAR
STARTCHAR 0021
ENCODING 33
SWIDTH 308 0
DWIDTH 6 0
BBX 2 14 2 0
BITMAP
C0
C0
C0
C0
C0
C0
C0
C0
C0
C0
00
00
C0
C0
ENDCHAR
STARTCHAR 0022
ENCODING 34
SWIDTH 411 0
DWIDTH 8 0
BBX 6 5 1 9
BITMAP
CC
CC
CC
CC
CC
ENDCHAR
STARTCHAR 0023
ENCODING 35
SWIDTH 771 0
DWIDTH 15 0
BBX 12 13 2 0
BITMAP
18C0
18C0
18C0
FFF0
FFF0
3080
3080
FFF0
FFF0
3180
3180
3180
2100
ENDCHAR
STARTCHAR 0024
ENCODING 36
SWIDTH 565 0
DWIDTH 11 0
BBX 8 18 2 -2
BITMAP
08
08
3E
7E
C0
C0
C0
F0
7C
1E
07
03
03
03
FE
FC
08
08
ENDCHAR
STARTCHAR 0025
ENCODING 37
SWIDTH 1080 0
DWIDTH 21 0
BBX 19 14 1 0
BITMAP
380600
7C0C00
C61800
C61800
C63000
C66000
CE6780
7CCCC0
119860
019860
031860
061860
060FC0
0C0780
ENDCHAR
STARTCHAR 0026
ENCODING 38
SWIDTH 771 0
DWIDTH 15 0
BBX 14 14 1 0
BITMAP
3E00
7E00
C000
C020
E060
7FFC
7FFC
6060
C060
C060
C060
E0E0
7FC0
3F00
ENDCHAR
STARTCHAR 0027
ENCODING 39
SWIDTH 205 0
DWIDTH 4 0
BBX 2 5 1 9
BITMAP
C0
C0
C0
C0
C0
ENDCHAR
STARTCHAR 0028
ENCODING 40
SWIDTH 308 0
DWIDTH 6 0
BBX 4 18 1 -3
BITMAP
30
30
60
60
60
C0
C0
C0
C0
C0
C0
C0
C0
60
60
60
30
30
ENDCHAR
STARTCHAR 0029
ENCODING 41
SWIDTH 308 0
DWIDTH 6 0
BBX 4 18 1 -3
BITMAP
C0
C0
60
60
60
30
30
30
30
30
30
30
30
60
60
60
C0
C0
ENDCHAR
STARTCHAR 002A
ENCODING 42
SWIDTH 462 0
DWIDTH 9 0
BBX 7 8 1 6
BITMAP
10
10
12
C6
00
28
6C
40
ENDCHAR
STARTCHAR 002B
ENCODING 43
SWIDTH 617 0
DWIDTH 12 0
BBX 8 9 2 2
BITMAP
18
18
18
18
FF
FF
18
18
18
ENDCHAR
STARTCHAR 002C
ENCODING 44
SWIDTH 205 0
DWIDTH 4 0
BBX 2 4 1 -1
BITMAP
C0
C0
C0
80
ENDCHAR
STARTCHAR 002D
ENCODING 45
SWIDTH 360 0
DWIDTH 7 0
BBX 5 2 1 4
BITMAP
F8
F8
ENDCHAR
STARTCHAR 002E
ENCODING 46
SWIDTH 205 0
DWIDTH 4 0
BBX 2 2 1 0
BITMAP
C0
C0
ENDCHAR
STARTCHAR 002F
ENCODING 47
SWIDTH 411 0
DWIDTH 8 0
BBX 6 14 1 0
BITMAP
0C
0C
08
18
18
10
30
30
20
60
60
C0
C0
C0
ENDCHAR
STARTCHAR 0030
ENCODING 48
SWIDTH 617 0
DWIDTH 12 0
BBX 10 12 1 1
BITMAP
3F00
6180
6180
C0C0
C0C0
C0C0
C0C0
C0C0
C0C0
6180
7F80
1E00
ENDCHAR
STARTCHAR 0031
ENCODING 49
SWIDTH 565 0
DWIDTH 11 0
BBX 8 12 2 1
BITMAP
18
F8
D8
18
18
18
18
18
18
18
FF
FF
ENDCHAR
STARTCHAR 0032
ENCODING 50
SWIDTH 565 0
DWIDTH 11 0
BBX 9 13 1 0
BITMAP
1000
FE00
0700
0300
0300
0300
0600
0E00
1C00
1800
3000
7F80
FF80
ENDCHAR
STARTCHAR 0033
ENCODING 51
SWIDTH 617 0
DWIDTH 12 0
BBX 9 14 1 -1
BITMAP
7F80
7F00
0600
0600
0C00
1C00
1F00
0380
0180
0180
0180
0300
FF00
FC00
ENDCHAR
STARTCHAR 0034
ENCODING 52
SWIDTH 565 0
DWIDTH 11 0
BBX 11 14 0 -1
BITMAP
0200
0600
0600
0C00
0C00
1800
1980
3180
3180
6180
7FE0
FFE0
0180
0180
ENDCHAR
STARTCHAR 0035
ENCODING 53
SWIDTH 565 0
DWIDTH 11 0
BBX 8 14 1 -1
BITMAP
7E
7E
60
60
60
70
7E
07
03
03
03
07
FE
F8
ENDCHAR
STARTCHAR 0036
ENCODING 54
SWIDTH 565 0
DWIDTH 11 0
BBX 9 14 1 0
BITMAP
0E00
1C00
3000
6000
6000
DE00
FF00
E380
C180
C180
C180
C380
7F00
3E00
ENDCHAR
STARTCHAR 0037
ENCODING 55
SWIDTH 617 0
DWIDTH 12 0
BBX 10 14 1 -1
BITMAP
FFC0
FF80
0180
0300
0300
0700
0600
0E00
0C00
0C00
1800
1800
3000
3000
ENDCHAR
STARTCHAR 0038
ENCODING 56
SWIDTH 617 0
DWIDTH 12 0
BBX 10 14 1 0
BITMAP
1E00
3F00
6180
6180
6180
3F00
1E00
7F00
6180
C0C0
C0C0
C0C0
7F80
3F00
ENDCHAR
STARTCHAR 0039
ENCODING 57
SWIDTH 565 0
DWIDTH 11 0
BBX 9 14 1 -2
BITMAP
3E00
7F00
E300
C180
C180
C180
C380
7F80
3D80
0300
0300
0600
1C00
3800
ENDCHAR
STARTCHAR 003A
ENCODING 58
SWIDTH 205 0
DWIDTH 4 0
BBX 2 10 1 0
BITMAP
C0
C0
00
00
00
00
00
00
C0
C0
ENDCHAR
STARTCHAR 003B
ENCODING 59
SWIDTH 257 0
DWIDTH 5 0
BBX 3 12 1 -2
BITMAP
60
60
00
00
00
00
00
00
60
C0
C0
C0
ENDCHAR
STARTCHAR 003C
ENCODING 60
SWIDTH 617 0
DWIDTH 12 0
BBX 8 7 2 3
BITMAP
07
1E
F0
C0
F8
1F
07
ENDCHAR
STARTCHAR 003D
ENCODING 61
SWIDTH 617 0
DWIDTH 12 0
BBX 8 5 2 4
BITMAP
FF
FF
00
FF
FF
ENDCHAR
STARTCHAR 003E
ENCODING 62
SWIDTH 617 0
DWIDTH 12 0
BBX 9 9 2 2
BITMAP
8000
E000
7C00
0F00
0380
0F00
7C00
E000
8000
ENDCHAR
STARTCHAR 003F
ENCODING 63
SWIDTH 462 0
DWIDTH 9 0
BBX 7 14 1 0
BITMAP
F8
FC
06
06
06
0E
3C
38
30
30
00
00
30
30
ENDCHAR
STARTCHAR 0040
ENCODING 64
SWIDTH 1028 0
DWIDTH 20 0
BBX 18 17 1 -3
BITMAP
01FC00
07FF00
1C0380
380180
31F8C0
63F8C0
6630C0
CE30C0
CC30C0
CC3180
CC3180
CFFF00
C7FE00
600000
700000
3FE000
0FE000
ENDCHAR
STARTCHAR 0041
ENCODING 65
SWIDTH 617 0
DWIDTH 12 0
BBX 12 14 0 0
BITMAP
0600
0F00
0F00
0B00
1980
1980
1980
30C0
30C0
3FC0
7FE0
6060
6060
C070
ENDCHAR
STARTCHAR 0042
ENCODING 66
SWIDTH 617 0
DWIDTH 12 0
BBX 9 14 2 0
BITMAP
FC00
FE00
C300
C300
C300
C600
FC00
FF00
C380
C180
C180
C380
FF00
FE00
ENDCHAR
STARTCHAR 0043
ENCODING 67
SWIDTH 617 0
DWIDTH 12 0
BBX 10 14 1 0
BITMAP
0FC0
3F80
7000
6000
C000
C000
C000
C000
C000
C000
6000
7000
3FC0
0FC0
ENDCHAR
STARTCHAR 0044
ENCODING 68
SWIDTH 720 0
DWIDTH 14 0
BBX 11 14 2 0
BITMAP
FE00
FF80
C1C0
C0C0
C060
C060
C060
C060
C060
C060
C0C0
C1C0
FF80
FE00
ENDCHAR
STARTCHAR 0045
ENCODING 69
SWIDTH 565 0
DWIDTH 11 0
BBX 8 14 2 0
BITMAP
FF
FF
C0
C0
C0
C0
FE
FE
C0
C0
C0
C0
FF
FF
ENDCHAR
STARTCHAR 0046
ENCODING 70
SWIDTH 514 0
DWIDTH 10 0
BBX 7 14 2 0
BITMAP
FE
FE
C0
C0
C0
C0
FE
FC
C0
C0
C0
C0
C0
C0
ENDCHAR
STARTCHAR 0047
ENCODING 71
SWIDTH 668 0
DWIDTH 13 0
BBX 11 14 1 0
BITMAP
0FC0
3FC0
7000
6000
C000
C000
C000
C060
C060
C060
6060
7060
3FE0
0FE0
ENDCHAR
STARTCHAR 0048
ENCODING 72
SWIDTH 720 0
DWIDTH 14 0
BBX 10 14 2 0
BITMAP
C0C0
C0C0
C0C0
C0C0
C0C0
C0C0
FFC0
FFC0
C0C0
C0C0
C0C0
C0C0
C0C0
C0C0
ENDCHAR
STARTCHAR 0049
ENCODING 73
SWIDTH 308 0
DWIDTH 6 0
BBX 2 14 2 0
BITMAP
C0
C0
C0
C0
C0
C0
C0
C0
C0
C0
C0
C0
C0
C0
ENDCHAR
STARTCHAR 004A
ENCODING 74
SWIDTH 411 0
DWIDTH 8 0
BBX 6 14 0 0
BITMAP
7C
3C
0C
0C
0C
0C
0C
0C
0C
0C
0C
0C
7C
F8
ENDCHAR
STARTCHAR 004B
ENCODING 75
SWIDTH 617 0
DWIDTH 12 0
BBX 9 14 2 0
BITMAP
C180
C300
C700
C600
CC00
CC00
D800
D800
CC00
CE00
C600
C300
C180
C180
ENDCHAR
STARTCHAR 004C
ENCODING 76
SWIDTH 514 0
DWIDTH 10 0
BBX 8 14 2 0
BITMAP
C0
C0
C0
C0
C0
C0
C0
C0
C0
C0
C0
C0
FF
FF
ENDCHAR
STARTCHAR 004D
ENCODING 77
SWIDTH 822 0
DWIDTH 16 0
BBX 12 14 2 0
BITMAP
E030
E070
E070
F0F0
D0B0
D9B0
D9B0
CD30
CF30
C630
C630
C030
C030
C030
ENDCHAR
STARTCHAR 004E
ENCODING 78
SWIDTH 720 0
DWIDTH 14 0
BBX 10 14 2 0
BITMAP
C0C0
E0C0
E0C0
F0C0
D0C0
D8C0
CCC0
CCC0
C6C0
C2C0
C3C0
C1C0
C1C0
C0C0
ENDCHAR
STARTCHAR 004F
ENCODING 79
SWIDTH 720 0
DWIDTH 14 0
BBX 12 14 1 0
BITMAP
1F80
3FC0
6060
6060
C030
C030
C030
C030
C030
C030
6060
6060
3FC0
1F80
ENDCHAR
STARTCHAR 0050
ENCODING 80
SWIDTH 617 0
DWIDTH 12 0
BBX 9 14 2 0
BITMAP
FC00
FF00
C380
C180
C180
C180
C380
FF00
FC00
C000
C000
C000
C000
C000
ENDCHAR
STARTCHAR 0051
ENCODING 81
SWIDTH 720 0
DWIDTH 14 0
BBX 12 17 1 -3
BITMAP
1F80
3FC0
6060
6060
C030
C030
C030
C030
C030
C030
6060
6060
3FC0
1F80
0080
01F0
0010
ENDCHAR
STARTCHAR 0052
ENCODING 82
SWIDTH 565 0
DWIDTH 11 0
BBX 9 14 2 0
BITMAP
FC00
FE00
C700
C300
C300
C300
C600
DC00
D800
CC00
C600
C600
C300
C180
ENDCHAR
STARTCHAR 0053
ENCODING 83
SWIDTH 514 0
DWIDTH 10 0
BBX 8 14 1 0
BITMAP
3E
7E
C0
C0
C0
F0
7C
1E
07
03
03
03
FE
FC
ENDCHAR
STARTCHAR 0054
ENCODING 84
SWIDTH 514 0
DWIDTH 10 0
BBX 10 14 0 0
BITMAP
FFC0
FFC0
0C00
0C00
0C00
0C00
0C00
0C00
0C00
0C00
0C00
0C00
0C00
0C00
ENDCHAR
STARTCHAR 0055
ENCODING 85
SWIDTH 720 0
DWIDTH 14 0
BBX 10 14 2 0
BITMAP
C0C0
C0C0
C0C0
C0C0
C0C0
C0C0
C0C0
C0C0
C0C0
C0C0
C0C0
6180
7F80
3F00
ENDCHAR
STARTCHAR 0056
ENCODING 86
SWIDTH 617 0
DWIDTH 12 0
BBX 11 14 1 0
BITMAP
C060
C0C0
C0C0
60C0
6180
6180
3180
3300
3300
3300
1A00
1E00
1E00
0C00
ENDCHAR
STARTCHAR 0057
ENCODING 87
SWIDTH 925 0
DWIDTH 18 0
BBX 16 14 1 0
BITMAP
C183
C183
C3C3
C3C3
63C6
6246
6666
6666
2664
342C
3C3C
3C3C
1C38
1818
ENDCHAR
STARTCHAR 0058
ENCODING 88
SWIDTH 617 0
DWIDTH 12 0
BBX 10 14 1 0
BITMAP
C0C0
6180
6180
6300
3300
3600
1E00
3600
3300
7300
6180
6180
C0C0
C0C0
ENDCHAR
STARTCHAR 0059
ENCODING 89
SWIDTH 617 0
DWIDTH 12 0
BBX 10 14 1 0
BITMAP
C0C0
C0C0
6180
6180
3300
3300
1E00
1E00
0C00
0C00
0C00
0C00
0C00
0C00
ENDCHAR
STARTCHAR 005A
ENCODING 90
SWIDTH 565 0
DWIDTH 11 0
BBX 9 14 1 0
BITMAP
FF80
FF80
0300
0700
0600
0E00
0C00
1800
3800
3000
7000
6000
FF80
FF80
ENDCHAR
STARTCHAR 005B
ENCODING 91
SWIDTH 308 0
DWIDTH 6 0
BBX 4 18 1 -4
BITMAP
F0
F0
C0
C0
C0
C0
C0
C0
C0
C0
C0
C0
C0
C0
C0
C0
F0
F0
ENDCHAR
STARTCHAR 005C
ENCODING 92
SWIDTH 411 0
DWIDTH 8 0
BBX 6 14 1 0
BITMAP
C0
C0
C0
60
60
60
30
30
10
18
18
08
0C
0C
ENDCHAR
STARTCHAR 005D
ENCODING 93
SWIDTH 308 0
DWIDTH 6 0
BBX 4 18 1 -4
BITMAP
F0
F0
30
30
30
30
30
30
30
30
30
30
30
30
30
30
F0
F0
ENDCHAR
STARTCHAR 005E
ENCODING 94
SWIDTH 565 0
DWIDTH 11 0
BBX 8 7 1 7
BITMAP
1C
1C
34
36
62
63
C3
ENDCHAR
STARTCHAR 005F
ENCODING 95
SWIDTH 514 0
DWIDTH 10 0
BBX 10 2 0 -2
BITMAP
FFC0
FFC0
ENDCHAR
STARTCHAR 0060
ENCODING 96
SWIDTH 514 0
DWIDTH 10 0
BBX 4 3 3 11
BITMAP
80
60
30
ENDCHAR
STARTCHAR 0061
ENCODING 97
SWIDTH 514 0
DWIDTH 10 0
BBX 8 10 1 0
BITMAP
7C
7E
03
0B
7F
E3
C3
C3
FF
3F
ENDCHAR
STARTCHAR 0062
ENCODING 98
SWIDTH 617 0
DWIDTH 12 0
BBX 9 14 2 0
BITMAP
C000
C000
C000
C000
DE00
FF00
C380
C180
C180
C180
C180
C300
FF00
FC00
ENDCHAR
STARTCHAR 0063
ENCODING 99
SWIDTH 462 0
DWIDTH 9 0
BBX 7 10 1 0
BITMAP
1E
7E
60
C0
C0
C0
C0
E0
7E
3E
ENDCHAR
STARTCHAR 0064
ENCODING 100
SWIDTH 617 0
DWIDTH 12 0
BBX 9 14 1 0
BITMAP
0180
0180
0180
0180
1F80
7F80
6180
C180
C180
C180
C180
E180
7F80
1F80
ENDCHAR
STARTCHAR 0065
ENCODING 101
SWIDTH 565 0
DWIDTH 11 0
BBX 9 10 1 0
BITMAP
3E00
7F00
6180
C180
FF80
FF80
C000
E000
7F00
1F00
ENDCHAR
STARTCHAR 0066
ENCODING 102
SWIDTH 411 0
DWIDTH 8 0
BBX 7 14 1 0
BITMAP
1E
3C
30
30
FC
FC
30
30
30
30
30
30
30
30
ENDCHAR
STARTCHAR 0067
ENCODING 103
SWIDTH 617 0
DWIDTH 12 0
BBX 10 15 1 -5
BITMAP
3DC0
7FC0
C300
C300
C300
7E00
7C00
C000
FC00
7F00
4180
C180
C180
FF00
7E00
ENDCHAR
STARTCHAR 0068
ENCODING 104
SWIDTH 565 0
DWIDTH 11 0
BBX 8 14 2 0
BITMAP
C0
C0
C0
C0
DE
FF
E3
C3
C3
C3
C3
C3
C3
C3
ENDCHAR
STARTCHAR 0069
ENCODING 105
SWIDTH 308 0
DWIDTH 6 0
BBX 3 14 1 0
BITMAP
60
60
00
00
E0
E0
60
60
60
60
60
60
60
60
ENDCHAR
STARTCHAR 006A
ENCODING 106
SWIDTH 308 0
DWIDTH 6 0
BBX 5 17 -1 -4
BITMAP
18
10
00
00
38
38
18
18
18
18
18
18
18
18
18
18
F0
ENDCHAR
STARTCHAR 006B
ENCODING 107
SWIDTH 514 0
DWIDTH 10 0
BBX 8 14 1 0
BITMAP
C0
C0
C0
C0
C7
C6
CC
D8
D8
D8
CC
CE
C6
C3
ENDCHAR
STARTCHAR 006C
ENCODING 108
SWIDTH 360 0
DWIDTH 7 0
BBX 4 14 2 0
BITMAP
C0
C0
C0
C0
C0
C0
C0
C0
C0
C0
C0
C0
F0
70
ENDCHAR
STARTCHAR 006D
ENCODING 109
SWIDTH 874 0
DWIDTH 17 0
BBX 14 10 2 0
BITMAP
DE78
FFFC
E30C
C30C
C30C
C30C
C30C
C30C
C30C
C30C
ENDCHAR
STARTCHAR 006E
ENCODING 110
SWIDTH 565 0
DWIDTH 11 0
BBX 8 10 2 0
BITMAP
DE
FF
E3
C3
C3
C3
C3
C3
C3
C3
ENDCHAR
STARTCHAR 006F
ENCODING 111
SWIDTH 565 0
DWIDTH 11 0
BBX 9 10 1 0
BITMAP
3E00
7F00
E380
C180
C180
C180
C180
E380
7F00
3E00
ENDCHAR
STARTCHAR 0070
ENCODING 112
SWIDTH 617 0
DWIDTH 12 0
BBX 9 15 2 -5
BITMAP
DE00
FF00
E380
C180
C180
C180
C180
C300
FF00
FC00
C000
C000
C000
C000
C000
ENDCHAR
STARTCHAR 0071
ENCODING 113
SWIDTH 617 0
DWIDTH 12 0
BBX 9 15 1 -5
BITMAP
1F80
7F80
6180
C180
C180
C180
C180
E180
7F80
3F80
0180
0180
0180
0180
0180
ENDCHAR
STARTCHAR 0072
ENCODING 114
SWIDTH 411 0
DWIDTH 8 0
BBX 5 10 2 0
BITMAP
D8
F8
E0
C0
C0
C0
C0
C0
C0
C0
ENDCHAR
STARTCHAR 0073
ENCODING 115
SWIDTH 462 0
DWIDTH 9 0
BBX 7 10 1 0
BITMAP
7E
FC
C0
E0
78
1E
06
06
FE
F8
ENDCHAR
STARTCHAR 0074
ENCODING 116
SWIDTH 360 0
DWIDTH 7 0
BBX 7 12 0 0
BITMAP
10
30
7E
FE
30
30
30
30
30
30
3E
1E
ENDCHAR
STARTCHAR 0075
ENCODING 117
SWIDTH 514 0
DWIDTH 10 0
BBX 8 10 1 0
BITMAP
C3
C3
C3
C3
C3
C3
C3
C3
7F
3F
ENDCHAR
STARTCHAR 0076
ENCODING 118
SWIDTH 514 0
DWIDTH 10 0
BBX 10 10 0 0
BITMAP
E0C0
6180
6180
3180
3300
3300
1A00
1E00
0E00
0C00
ENDCHAR
STARTCHAR 0077
ENCODING 119
SWIDTH 771 0
DWIDTH 15 0
BBX 14 10 1 0
BITMAP
C30C
C718
C718
C598
6D90
6DB0
68B0
28E0
38E0
3060
ENDCHAR
STARTCHAR 0078
ENCODING 120
SWIDTH 514 0
DWIDTH 10 0
BBX 8 10 1 0
BITMAP
C3
C6
66
64
3C
3C
66
66
C3
C3
ENDCHAR
STARTCHAR 0079
ENCODING 121
SWIDTH 514 0
DWIDTH 10 0
BBX 10 15 0 -5
BITMAP
E0C0
60C0
6180
6180
3180
3300
3300
1B00
1E00
1E00
0600
0C00
0C00
3C00
7800
ENDCHAR
STARTCHAR 007A
ENCODING 122
SWIDTH 462 0
DWIDTH 9 0
BBX 8 10 1 0
BITMAP
FF
FE
0C
1C
18
30
30
60
FE
FF
ENDCHAR
STARTCHAR 007B
ENCODING 123
SWIDTH 411 0
DWIDTH 8 0
BBX 6 17 1 -4
BITMAP
1C
3C
30
30
30
30
30
70
E0
60
30
30
30
30
30
38
1C
ENDCHAR
STARTCHAR 007C
ENCODING 124
SWIDTH 308 0
DWIDTH 6 0
BBX 2 18 2 -3
BITMAP
C0
C0
C0
C0
C0
C0
C0
C0
C0
C0
C0
C0
C0
C0
C0
C0
C0
C0
ENDCHAR
STARTCHAR 007D
ENCODING 125
SWIDTH 411 0
DWIDTH 8 0
BBX 6 17 1 -4
BITMAP
C0
E0
30
30
30
30
30
38
1C
18
30
30
30
30
30
70
E0
ENDCHAR
STARTCHAR 007E
ENCODING 126
SWIDTH 462 0
DWIDTH 9 0
BBX 8 2 1 8
BITMAP
FF
8E
ENDCHAR
STARTCHAR 00A0
ENCODING 160
SWIDTH 0 0
DWIDTH 0 0
BBX 0 0 0 0
BITMAP
ENDCHAR
STARTCHAR 00A1
ENCODING 161
SWIDTH 308 0
DWIDTH 6 0
BBX 2 14 2 -4
BITMAP
C0
C0
00
00
C0
C0
C0
C0
C0
C0
C0
C0
C0
C0
ENDCHAR
STARTCHAR 00A2
ENCODING 162
SWIDTH 565 0
DWIDTH 11 0
BBX 7 14 2 -1
BITMAP
08
08
3E
7E
E0
C0
C0
C0
C0
E0
7E
3E
08
08
ENDCHAR
STARTCHAR 00A3
ENCODING 163
SWIDTH 617 0
DWIDTH 12 0
BBX 9 14 2 0
BITMAP
1F00
3F00
6000
6000
6000
6000
FE00
FE00
3000
3000
3000
3000
7F00
FF80
ENDCHAR
STARTCHAR 00A4
ENCODING 164
SWIDTH 668 0
DWIDTH 13 0
BBX 11 10 1 2
BITMAP
4040
EEE0
3F80
71C0
60C0
60C0
71C0
7F80
FFE0
4040
ENDCHAR
STARTCHAR 00A5
ENCODING 165
SWIDTH 617 0
DWIDTH 12 0
BBX 10 14 1 0
BITMAP
C0C0
E0C0
6180
7180
3300
3B00
1E00
FFC0
0C00
FFC0
FFC0
0C00
0C00
0C00
ENDCHAR
STARTCHAR 00A6
ENCODING 166
SWIDTH 308 0
DWIDTH 6 0
BBX 2 18 2 -3
BITMAP
C0
C0
C0
C0
C0
C0
C0
00
00
00
00
C0
C0
C0
C0
C0
C0
C0
ENDCHAR
STARTCHAR 00A7
ENCODING 167
SWIDTH 514 0
DWIDTH 10 0
BBX 8 14 1 0
BITMAP
3F
FE
C0
C0
78
DE
C7
E3
7B
1E
03
03
FF
FC
ENDCHAR
STARTCHAR 00A8
ENCODING 168
SWIDTH 514 0
DWIDTH 10 0
BBX 6 2 2 11
BITMAP
CC
CC
ENDCHAR
STARTCHAR 00A9
ENCODING 169
SWIDTH 874 0
DWIDTH 17 0
BBX 15 15 1 0
BITMAP
0100
1FF0
3838
701C
63CC
C7C6
CC06
CC06
CC06
CC06
67CE
63CC
3018
1FF0
07C0
ENDCHAR
STARTCHAR 00AA
ENCODING 170
SWIDTH 514 0
DWIDTH 10 0
BBX 7 8 1 6
BITMAP
7C
4E
06
7E
E6
C6
E6
7E
ENDCHAR
STARTCHAR 00AB
ENCODING 171
SWIDTH 617 0
DWIDTH 12 0
BBX 10 9 1 1
BITMAP
18C0
3180
7300
6300
C600
6300
7300
3180
18C0
ENDCHAR
STARTCHAR 00AC
ENCODING 172
SWIDTH 617 0
DWIDTH 12 0
BBX 8 5 2 3
BITMAP
FF
FF
03
03
03
ENDCHAR
STARTCHAR 00AD
ENCODING 173
SWIDTH 360 0
DWIDTH 7 0
BBX 5 2 1 4
BITMAP
F8
F8
ENDCHAR
STARTCHAR 00AE
ENCODING 174
SWIDTH 874 0
DWIDTH 17 0
BBX 15 15 1 0
BITMAP
0100
1FF0
3838
701C
678C
C7C6
C6C6
C6C6
C706
C686
664E
600C
3018
1FF0
07C0
ENDCHAR
STARTCHAR 00AF
ENCODING 175
SWIDTH 514 0
DWIDTH 10 0
BBX 5 2 2 12
BITMAP
F8
F8
ENDCHAR
STARTCHAR 00B0
ENCODING 176
SWIDTH 360 0
DWIDTH 7 0
BBX 5 6 1 8
BITMAP
20
F0
88
88
F8
70
ENDCHAR
STARTCHAR 00B1
ENCODING 177
SWIDTH 617 0
DWIDTH 12 0
BBX 8 11 2 0
BITMAP
18
18
18
FF
FF
18
18
18
18
FF
FF
ENDCHAR
STARTCHAR 00B2
ENCODING 178
SWIDTH 411 0
DWIDTH 8 0
BBX 6 8 1 6
BITMAP
F8
5C
0C
0C
18
30
60
FC
ENDCHAR
STARTCHAR 00B3
ENCODING 179
SWIDTH 411 0
DWIDTH 8 0
BBX 6 8 1 6
BITMAP
F8
18
30
38
0C
0C
98
F0
ENDCHAR
STARTCHAR 00B4
ENCODING 180
SWIDTH 514 0
DWIDTH 10 0
BBX 4 3 3 11
BITMAP
30
60
C0
ENDCHAR
STARTCHAR 00B5
ENCODING 181
SWIDTH 617 0
DWIDTH 12 0
BBX 9 15 2 -5
BITMAP
C180
C180
C180
C180
C180
C180
C180
C380
FF80
FD80
C000
C000
C000
C000
C000
ENDCHAR
STARTCHAR 00B6
ENCODING 182
SWIDTH 565 0
DWIDTH 11 0
BBX 9 14 1 0
BITMAP
3D80
FD80
FD80
FD80
FD80
FD80
FD80
7D80
0D80
0D80
0D80
0D80
0D80
0D80
ENDCHAR
STARTCHAR 00B7
ENCODING 183
SWIDTH 205 0
DWIDTH 4 0
BBX 2 2 1 4
BITMAP
C0
C0
ENDCHAR
STARTCHAR 00B8
ENCODING 184
SWIDTH 565 0
DWIDTH 11 0
BBX 5 5 3 -4
BITMAP
40
70
18
B8
F0
ENDCHAR
STARTCHAR 00B9
ENCODING 185
SWIDTH 462 0
DWIDTH 9 0
BBX 5 8 2 6
BITMAP
30
F0
B0
30
30
30
30
F8
ENDCHAR
STARTCHAR 00BA
ENCODING 186
SWIDTH 462 0
DWIDTH 9 0
BBX 7 8 1 6
BITMAP
38
6C
C6
C6
C6
C6
6C
38
ENDCHAR
STARTCHAR 00BB
ENCODING 187
SWIDTH 617 0
DWIDTH 12 0
BBX 10 9 1 1
BITMAP
C600
6300
3380
3180
18C0
3180
3380
6300
C600
ENDCHAR
STARTCHAR 00BC
ENCODING 188
SWIDTH 1028 0
DWIDTH 20 0
BBX 17 13 2 1
BITMAP
700C00
F01800
303000
302000
306000
30C400
FD8C00
018C00
031800
061B00
063F80
0C0300
180300
ENDCHAR
STARTCHAR 00BD
ENCODING 189
SWIDTH 1080 0
DWIDTH 21 0
BBX 18 13 2 1
BITMAP
701800
F01800
303000
306000
30C000
FCCF00
FD8380
030180
030180
060300
0C0600
0C0F80
181FC0
ENDCHAR
STARTCHAR 00BE
ENCODING 190
SWIDTH 1080 0
DWIDTH 21 0
BBX 18 14 2 0
BITMAP
FC0400
F80C00
101800
303000
783000
0C6000
0CC200
F88600
618400
030D80
060980
061FC0
0C0180
180180
ENDCHAR
STARTCHAR 00BF
ENCODING 191
SWIDTH 462 0
DWIDTH 9 0
BBX 7 14 1 -4
BITMAP
18
18
00
00
18
18
38
70
C0
C0
C0
E0
7E
1C
ENDCHAR
STARTCHAR 00C0
ENCODING 192
SWIDTH 617 0
DWIDTH 12 0
BBX 12 17 0 0
BITMAP
1C00
0600
0000
0600
0F00
0F00
0B00
1980
1980
1980
30C0
30C0
3FC0
7FE0
6060
6060
C070
ENDCHAR
STARTCHAR 00C1
ENCODING 193
SWIDTH 617 0
DWIDTH 12 0
BBX 12 17 0 0
BITMAP
0380
0600
0000
0600
0F00
0F00
0B00
1980
1980
1980
30C0
30C0
3FC0
7FE0
6060
6060
C070
ENDCHAR
STARTCHAR 00C2
ENCODING 194
SWIDTH 617 0
DWIDTH 12 0
BBX 12 17 0 0
BITMAP
0F00
1980
0000
0600
0F00
0F00
0B00
1980
1980
1980
30C0
30C0
3FC0
7FE0
6060
6060
C070
ENDCHAR
STARTCHAR 00C3
ENCODING 195
SWIDTH 617 0
DWIDTH 12 0
BBX 12 18 0 0
BITMAP
0800
1F80
0380
0000
0600
0F00
0F00
0B00
1980
1980
1980
30C0
30C0
3FC0
7FE0
6060
6060
C070
ENDCHAR
STARTCHAR 00C4
ENCODING 196
SWIDTH 617 0
DWIDTH 12 0
BBX 10 17 1 0
BITMAP
3300
3300
0000
0C00
1E00
1E00
1E00
1300
3300
3300
2180
6180
7F80
7F80
C0C0
C0C0
C0C0
ENDCHAR
STARTCHAR 00C5
ENCODING 197
SWIDTH 617 0
DWIDTH 12 0
BBX 10 18 1 0
BITMAP
0C00
1E00
1200
1200
0C00
0C00
1E00
1E00
1600
3300
3300
2300
6180
7F80
7F80
C0C0
C0C0
C0C0
ENDCHAR
STARTCHAR 00C6
ENCODING 198
SWIDTH 925 0
DWIDTH 18 0
BBX 17 14 0 0
BITMAP
00FF80
01FF80
036000
036000
066000
066000
0C7F00
0C7F00
186000
3FE000
3FE000
606000
607F80
C07F80
ENDCHAR
STARTCHAR 00C7
ENCODING 199
SWIDTH 617 0
DWIDTH 12 0
BBX 10 19 1 -5
BITMAP
0FC0
3FC0
7000
6000
C000
C000
C000
C000
C000
C000
6000
7000
3FC0
1FC0
0400
0700
0180
0180
0F00
ENDCHAR
STARTCHAR 00C8
ENCODING 200
SWIDTH 565 0
DWIDTH 11 0
BBX 8 17 2 0
BITMAP
70
18
00
FF
FF
C0
C0
C0
C0
FE
FE
C0
C0
C0
C0
FF
FF
ENDCHAR
STARTCHAR 00C9
ENCODING 201
SWIDTH 565 0
DWIDTH 11 0
BBX 8 17 2 0
BITMAP
0C
18
00
FF
FF
C0
C0
C0
C0
FE
FE
C0
C0
C0
C0
FF
FF
ENDCHAR
STARTCHAR 00CA
ENCODING 202
SWIDTH 565 0
DWIDTH 11 0
BBX 8 17 2 0
BITMAP
3C
66
00
FF
FF
C0
C0
C0
C0
FE
FE
C0
C0
C0
C0
FF
FF
ENDCHAR
STARTCHAR 00CB
ENCODING 203
SWIDTH 565 0
DWIDTH 11 0
BBX 8 17 2 0
BITMAP
66
66
00
FF
FF
C0
C0
C0
C0
FE
FE
C0
C0
C0
C0
FF
FF
ENDCHAR
STARTCHAR 00CC
ENCODING 204
SWIDTH 308 0
DWIDTH 6 0
BBX 4 17 0 0
BITMAP
E0
30
00
30
30
30
30
30
30
30
30
30
30
30
30
30
30
ENDCHAR
STARTCHAR 00CD
ENCODING 205
SWIDTH 308 0
DWIDTH 6 0
BBX 4 17 2 0
BITMAP
70
C0
00
C0
C0
C0
C0
C0
C0
C0
C0
C0
C0
C0
C0
C0
C0
ENDCHAR
STARTCHAR 00CE
ENCODING 206
SWIDTH 308 0
DWIDTH 6 0
BBX 6 17 0 0
BITMAP
78
CC
00
30
30
30
30
30
30
30
30
30
30
30
30
30
30
ENDCHAR
STARTCHAR 00CF
ENCODING 207
SWIDTH 308 0
DWIDTH 6 0
BBX 6 17 0 0
BITMAP
CC
CC
00
30
30
30
30
30
30
30
30
30
30
30
30
30
30
ENDCHAR
STARTCHAR 00D0
ENCODING 208
SWIDTH 720 0
DWIDTH 14 0
BBX 13 14 0 0
BITMAP
3F80
3FE0
3070
3030
3018
3018
FE18
FE18
3018
3018
3030
3070
3FE0
3F80
ENDCHAR
STARTCHAR 00D1
ENCODING 209
SWIDTH 720 0
DWIDTH 14 0
BBX 10 18 2 0
BITMAP
1000
3F00
0700
0000
C0C0
E0C0
E0C0
F0C0
D0C0
D8C0
CCC0
CCC0
C6C0
C2C0
C3C0
C1C0
C1C0
C0C0
ENDCHAR
STARTCHAR 00D2
ENCODING 210
SWIDTH 720 0
DWIDTH 14 0
BBX 12 17 1 0
BITMAP
1C00
0600
0000
1F80
3FC0
6060
6060
C030
C030
C030
C030
C030
C030
6060
6060
3FC0
1F80
ENDCHAR
STARTCHAR 00D3
ENCODING 211
SWIDTH 720 0
DWIDTH 14 0
BBX 12 17 1 0
BITMAP
0380
0600
0000
1F80
3FC0
6060
6060
C030
C030
C030
C030
C030
C030
6060
6060
3FC0
1F80
ENDCHAR
STARTCHAR 00D4
ENCODING 212
SWIDTH 720 0
DWIDTH 14 0
BBX 12 17 1 0
BITMAP
0F00
1980
0000
1F80
3FC0
6060
6060
C030
C030
C030
C030
C030
C030
6060
6060
3FC0
1F80
ENDCHAR
STARTCHAR 00D5
ENCODING 213
SWIDTH 720 0
DWIDTH 14 0
BBX 12 18 1 0
BITMAP
0800
3FC0
0380
0000
1F80
3FC0
6060
6060
C030
C030
C030
C030
C030
C030
6060
6060
3FC0
1F80
ENDCHAR
STARTCHAR 00D6
ENCODING 214
SWIDTH 720 0
DWIDTH 14 0
BBX 12 17 1 0
BITMAP
1980
1980
0000
1F80
3FC0
6060
6060
C030
C030
C030
C030
C030
C030
6060
6060
3FC0
1F80
ENDCHAR
STARTCHAR 00D7
ENCODING 215
SWIDTH 617 0
DWIDTH 12 0
BBX 7 7 2 3
BITMAP
46
6E
3C
38
7C
E6
42
ENDCHAR
STARTCHAR 00D8
ENCODING 216
SWIDTH 720 0
DWIDTH 14 0
BBX 12 14 1 0
BITMAP
1FB0
3FE0
6060
60E0
C1B0
C330
C630
C430
CC30
D830
7060
6060
7FC0
DF80
ENDCHAR
STARTCHAR 00D9
ENCODING 217
SWIDTH 720 0
DWIDTH 14 0
BBX 10 17 2 0
BITMAP
3800
0C00
0000
C0C0
C0C0
C0C0
C0C0
C0C0
C0C0
C0C0
C0C0
C0C0
C0C0
C0C0
6180
7F80
3F00
ENDCHAR
STARTCHAR 00DA
ENCODING 218
SWIDTH 720 0
DWIDTH 14 0
BBX 10 17 2 0
BITMAP
0700
0C00
0000
C0C0
C0C0
C0C0
C0C0
C0C0
C0C0
C0C0
C0C0
C0C0
C0C0
C0C0
6180
7F80
3F00
ENDCHAR
STARTCHAR 00DB
ENCODING 219
SWIDTH 720 0
DWIDTH 14 0
BBX 10 17 2 0
BITMAP
1E00
3300
0000
C0C0
C0C0
C0C0
C0C0
C0C0
C0C0
C0C0
C0C0
C0C0
C0C0
C0C0
6180
7F80
3F00
ENDCHAR
STARTCHAR 00DC
ENCODING 220
SWIDTH 720 0
DWIDTH 14 0
BBX 10 17 2 0
BITMAP
3300
3300
0000
C0C0
C0C0
C0C0
C0C0
C0C0
C0C0
C0C0
C0C0
C0C0
C0C0
C0C0
6180
7F80
3F00
ENDCHAR
STARTCHAR 00DD
ENCODING 221
SWIDTH 617 0
DWIDTH 12 0
BBX 10 17 1 0
BITMAP
0700
0C00
0000
C0C0
C0C0
6180
6180
3300
3300
1E00
1E00
0C00
0C00
0C00
0C00
0C00
0C00
ENDCHAR
STARTCHAR 00DE
ENCODING 222
SWIDTH 617 0
DWIDTH 12 0
BBX 9 14 2 0
BITMAP
C000
C000
F000
FE00
C300
C180
C180
C180
C180
C300
FE00
F000
C000
C000
ENDCHAR
STARTCHAR 00DF
ENCODING 223
SWIDTH 617 0
DWIDTH 12 0
BBX 9 14 2 0
BITMAP
3C00
7F00
C300
C300
C300
C600
CC00
CC00
CE00
C700
C180
C180
DF80
DF00
ENDCHAR
STARTCHAR 00E0
ENCODING 224
SWIDTH 514 0
DWIDTH 10 0
BBX 8 14 1 0
BITMAP
70
18
0C
00
7C
7E
03
0B
7F
E3
C3
C3
FF
3F
ENDCHAR
STARTCHAR 00E1
ENCODING 225
SWIDTH 514 0
DWIDTH 10 0
BBX 8 14 1 0
BITMAP
0E
18
30
00
7C
7E
03
0B
7F
E3
C3
C3
FF
3F
ENDCHAR
STARTCHAR 00E2
ENCODING 226
SWIDTH 514 0
DWIDTH 10 0
BBX 8 14 1 0
BITMAP
3C
3C
66
00
7C
7E
03
0B
7F
E3
C3
C3
FF
3F
ENDCHAR
STARTCHAR 00E3
ENCODING 227
SWIDTH 514 0
DWIDTH 10 0
BBX 8 14 1 0
BITMAP
70
7F
00
00
7C
7E
03
0B
7F
E3
C3
C3
FF
3F
ENDCHAR
STARTCHAR 00E4
ENCODING 228
SWIDTH 514 0
DWIDTH 10 0
BBX 8 14 1 0
BITMAP
66
66
00
00
7C
7E
03
0B
7F
E3
C3
C3
FF
3F
ENDCHAR
STARTCHAR 00E5
ENCODING 229
SWIDTH 514 0
DWIDTH 10 0
BBX 8 15 1 0
BITMAP
18
3C
3C
18
00
7C
7E
03
0B
7F
E3
C3
C3
FF
3F
ENDCHAR
STARTCHAR 00E6
ENCODING 230
SWIDTH 874 0
DWIDTH 17 0
BBX 15 10 1 0
BITMAP
7C78
7FFC
0386
0306
3FFE
FBFE
C300
C380
FFFC
7EFC
ENDCHAR
STARTCHAR 00E7
ENCODING 231
SWIDTH 462 0
DWIDTH 9 0
BBX 8 15 1 -5
BITMAP
1F
7E
60
C0
C0
C0
C0
E0
7F
3F
10
1C
1E
1E
1C
ENDCHAR
STARTCHAR 00E8
ENCODING 232
SWIDTH 565 0
DWIDTH 11 0
BBX 9 14 1 0
BITMAP
3000
1800
0C00
0000
3E00
7F00
6180
C180
FF80
FF80
C000
E000
7F00
1F00
ENDCHAR
STARTCHAR 00E9
ENCODING 233
SWIDTH 565 0
DWIDTH 11 0
BBX 9 14 1 0
BITMAP
0600
0C00
1800
0000
3E00
7F00
4180
C180
FF80
C000
C000
E000
7F00
1F00
ENDCHAR
STARTCHAR 00EA
ENCODING 234
SWIDTH 565 0
DWIDTH 11 0
BBX 9 14 1 0
BITMAP
1C00
3600
6300
0000
3E00
7F00
6180
C180
FF80
FF80
C000
E000
7F00
1F00
ENDCHAR
STARTCHAR 00EB
ENCODING 235
SWIDTH 565 0
DWIDTH 11 0
BBX 9 14 1 0
BITMAP
6600
6600
0000
0000
3E00
7F00
6180
C180
FF80
FF80
C000
E000
7F00
1F00
ENDCHAR
STARTCHAR 00EC
ENCODING 236
SWIDTH 308 0
DWIDTH 6 0
BBX 4 14 0 0
BITMAP
E0
70
10
00
70
70
30
30
30
30
30
30
30
30
ENDCHAR
STARTCHAR 00ED
ENCODING 237
SWIDTH 308 0
DWIDTH 6 0
BBX 4 14 1 0
BITMAP
30
60
C0
00
E0
E0
60
60
60
60
60
60
60
60
ENDCHAR
STARTCHAR 00EE
ENCODING 238
SWIDTH 308 0
DWIDTH 6 0
BBX 6 14 0 0
BITMAP
70
D8
8C
00
70
70
30
30
30
30
30
30
30
30
ENDCHAR
STARTCHAR 00EF
ENCODING 239
SWIDTH 308 0
DWIDTH 6 0
BBX 6 14 0 0
BITMAP
CC
CC
00
00
70
70
30
30
30
30
30
30
30
30
ENDCHAR
STARTCHAR 00F0
ENCODING 240
SWIDTH 565 0
DWIDTH 11 0
BBX 9 14 1 0
BITMAP
3200
3E00
1E00
0300
0300
7F80
6380
C180
C180
C180
C180
E380
7F00
3E00
ENDCHAR
STARTCHAR 00F1
ENCODING 241
SWIDTH 565 0
DWIDTH 11 0
BBX 8 14 2 0
BITMAP
72
7E
00
00
DE
FF
E3
C3
C3
C3
C3
C3
C3
C3
ENDCHAR
STARTCHAR 00F2
ENCODING 242
SWIDTH 565 0
DWIDTH 11 0
BBX 9 14 1 0
BITMAP
3000
1800
0C00
0000
3E00
7F00
E380
C180
C180
C180
C180
E380
7F00
3E00
ENDCHAR
STARTCHAR 00F3
ENCODING 243
SWIDTH 565 0
DWIDTH 11 0
BBX 9 14 1 0
BITMAP
0600
0C00
1800
0000
3E00
7F00
E380
C180
C180
C180
C180
E380
7F00
3E00
ENDCHAR
STARTCHAR 00F4
ENCODING 244
SWIDTH 565 0
DWIDTH 11 0
BBX 9 14 1 0
BITMAP
1C00
3600
6300
0000
3E00
7F00
E380
C180
C180
C180
C180
E380
7F00
3E00
ENDCHAR
STARTCHAR 00F5
ENCODING 245
SWIDTH 565 0
DWIDTH 11 0
BBX 9 14 1 0
BITMAP
3000
7F00
0000
0000
3E00
7F00
E380
C180
C180
C180
C180
E380
7F00
3E00
ENDCHAR
STARTCHAR 00F6
ENCODING 246
SWIDTH 565 0
DWIDTH 11 0
BBX 9 14 1 0
BITMAP
3300
3300
0000
0000
3E00
7F00
E380
C180
C180
C180
C180
E380
7F00
3E00
ENDCHAR
STARTCHAR 00F7
ENCODING 247
SWIDTH 617 0
DWIDTH 12 0
BBX 9 10 2 2
BITMAP
0800
1C00
1C00
0000
FF80
FF80
0000
0800
1C00
1800
ENDCHAR
STARTCHAR 00F8
ENCODING 248
SWIDTH 565 0
DWIDTH 11 0
BBX 9 10 1 0
BITMAP
3F80
7F00
E300
C780
CD80
C980
D180
6380
7F00
FE00
ENDCHAR
STARTCHAR 00F9
ENCODING 249
SWIDTH 514 0
DWIDTH 10 0
BBX 8 14 1 0
BITMAP
70
38
08
00
C3
C3
C3
C3
C3
C3
C3
C3
7F
3F
ENDCHAR
STARTCHAR 00FA
ENCODING 250
SWIDTH 514 0
DWIDTH 10 0
BBX 8 14 1 0
BITMAP
0E
0C
18
00
C3
C3
C3
C3
C3
C3
C3
C3
7F
3F
ENDCHAR
STARTCHAR 00FB
ENCODING 251
SWIDTH 514 0
DWIDTH 10 0
BBX 8 14 1 0
BITMAP
1C
3C
66
00
C3
C3
C3
C3
C3
C3
C3
C3
7F
3F
ENDCHAR
STARTCHAR 00FC
ENCODING 252
SWIDTH 514 0
DWIDTH 10 0
BBX 8 14 1 0
BITMAP
66
66
00
00
C3
C3
C3
C3
C3
C3
C3
C3
7F
3F
ENDCHAR
STARTCHAR 00FD
ENCODING 253
SWIDTH 514 0
DWIDTH 10 0
BBX 10 19 0 -5
BITMAP
0700
0C00
1800
0000
E0C0
60C0
6180
6180
3180
3300
3300
1B00
1E00
1E00
0600
0C00
0C00
3C00
7800
ENDCHAR
STARTCHAR 00FE
ENCODING 254
SWIDTH 617 0
DWIDTH 12 0
BBX 9 19 2 -5
BITMAP
C000
C000
C000
C000
DE00
FF00
E380
C180
C180
C180
C180
C300
FF00
FC00
C000
C000
C000
C000
C000
ENDCHAR
STARTCHAR 00FF
ENCODING 255
SWIDTH 514 0
DWIDTH 10 0
BBX 10 19 0 -5
BITMAP
3300
3300
0000
0000
C0C0
6180
6180
6180
3300
3300
3300
1200
1E00
1E00
0600
0C00
0C00
7800
7800
ENDCHAR
STARTCHAR 0100
ENCODING 256
SWIDTH 617 0
DWIDTH 12 0
BBX 11 17 0 0
BITMAP
1F80
1F80
0000
0600
0F00
0F00
0B00
1900
1980
1180
3180
30C0
3FC0
7FC0
6060
6060
C060
ENDCHAR
STARTCHAR 0101
ENCODING 257
SWIDTH 514 0
DWIDTH 10 0
BBX 8 14 1 0
BITMAP
3E
3E
00
00
7C
7E
03
0B
7F
E3
C3
C3
FF
3F
ENDCHAR
STARTCHAR 0102
ENCODING 258
SWIDTH 617 0
DWIDTH 12 0
BBX 12 17 0 0
BITMAP
1980
1F80
0000
0600
0F00
0F00
0B00
1980
1980
1980
30C0
30C0
3FC0
7FE0
6060
6060
C070
ENDCHAR
STARTCHAR 0103
ENCODING 259
SWIDTH 514 0
DWIDTH 10 0
BBX 8 14 1 0
BITMAP
62
3E
08
00
7C
7E
03
0B
7F
E3
C3
C3
FF
3F
ENDCHAR
STARTCHAR 0104
ENCODING 260
SWIDTH 617 0
DWIDTH 12 0
BBX 11 19 1 -5
BITMAP
0E00
0E00
1E00
1F00
1300
3300
3380
2180
6180
7FC0
7FC0
C0C0
C0E0
C060
00C0
0180
0180
01E0
00E0
ENDCHAR
STARTCHAR 0105
ENCODING 261
SWIDTH 514 0
DWIDTH 10 0
BBX 8 15 1 -5
BITMAP
7C
7E
03
03
3F
FF
C3
C3
FF
3F
06
0C
0C
0F
07
ENDCHAR
STARTCHAR 0106
ENCODING 262
SWIDTH 617 0
DWIDTH 12 0
BBX 10 17 1 0
BITMAP
0380
0600
0000
0FC0
3F80
7000
6000
C000
C000
C000
C000
C000
C000
6000
7000
3FC0
0FC0
ENDCHAR
STARTCHAR 0107
ENCODING 263
SWIDTH 462 0
DWIDTH 9 0
BBX 7 14 1 0
BITMAP
06
0C
18
00
1E
7E
60
C0
C0
C0
C0
E0
7E
3E
ENDCHAR
STARTCHAR 0108
ENCODING 264
SWIDTH 617 0
DWIDTH 12 0
BBX 10 17 1 0
BITMAP
0F00
1980
0000
0FC0
3F80
7000
6000
C000
C000
C000
C000
C000
C000
6000
7000
3FC0
0FC0
ENDCHAR
STARTCHAR 0109
ENCODING 265
SWIDTH 462 0
DWIDTH 9 0
BBX 8 14 1 0
BITMAP
1C
36
63
00
1E
7E
60
C0
C0
C0
C0
E0
7E
3E
ENDCHAR
STARTCHAR 010A
ENCODING 266
SWIDTH 565 0
DWIDTH 11 0
BBX 9 17 1 0
BITMAP
0600
0600
0000
0F80
3F80
7000
6000
C000
C000
C000
C000
C000
C000
6000
7000
3F80
0F80
ENDCHAR
STARTCHAR 010B
ENCODING 267
SWIDTH 462 0
DWIDTH 9 0
BBX 7 14 1 0
BITMAP
0C
0C
00
00
1E
7E
60
C0
C0
C0
C0
E0
7E
3E
ENDCHAR
STARTCHAR 010C
ENCODING 268
SWIDTH 617 0
DWIDTH 12 0
BBX 10 17 1 0
BITMAP
1980
0700
0000
0FC0
3F80
7000
6000
C000
C000
C000
C000
C000
C000
6000
7000
3FC0
0FC0
ENDCHAR
STARTCHAR 010D
ENCODING 269
SWIDTH 462 0
DWIDTH 9 0
BBX 8 14 1 0
BITMAP
33
1E
1C
00
1E
7E
60
C0
C0
C0
C0
E0
7E
3E
ENDCHAR
STARTCHAR 010E
ENCODING 270
SWIDTH 720 0
DWIDTH 14 0
BBX 11 17 2 0
BITMAP
6600
3C00
0000
FE00
FF80
C1C0
C0C0
C060
C060
C060
C060
C060
C060
C0C0
C1C0
FF80
FE00
ENDCHAR
STARTCHAR 010F
ENCODING 271
SWIDTH 668 0
DWIDTH 13 0
BBX 12 14 1 0
BITMAP
01B0
01B0
01B0
01B0
1F80
7F80
6180
C180
C180
C180
C180
E180
7F80
1F80
ENDCHAR
STARTCHAR 0110
ENCODING 272
SWIDTH 720 0
DWIDTH 14 0
BBX 13 14 0 0
BITMAP
3F80
3FE0
3070
3030
3018
3018
FE18
FE18
3018
3018
3030
3070
3FE0
3F80
ENDCHAR
STARTCHAR 0111
ENCODING 273
SWIDTH 617 0
DWIDTH 12 0
BBX 10 14 1 0
BITMAP
0180
0FC0
0FC0
0180
1F80
7F80
6180
C180
C180
C180
C180
E180
7F80
1F80
ENDCHAR
STARTCHAR 0112
ENCODING 274
SWIDTH 565 0
DWIDTH 11 0
BBX 8 17 2 0
BITMAP
7E
7E
00
FF
FF
C0
C0
C0
C0
FE
FE
C0
C0
C0
C0
FF
FF
ENDCHAR
STARTCHAR 0113
ENCODING 275
SWIDTH 565 0
DWIDTH 11 0
BBX 9 14 1 0
BITMAP
3E00
3E00
0000
0000
3E00
7F00
6180
C180
FF80
FF80
C000
E000
7F00
1F00
ENDCHAR
STARTCHAR 0114
ENCODING 276
SWIDTH 565 0
DWIDTH 11 0
BBX 8 17 2 0
BITMAP
66
7E
00
FF
FF
C0
C0
C0
C0
FE
FE
C0
C0
C0
C0
FF
FF
ENDCHAR
STARTCHAR 0115
ENCODING 277
SWIDTH 565 0
DWIDTH 11 0
BBX 9 14 1 0
BITMAP
6300
3E00
0800
0000
3E00
7F00
4180
C180
FF80
C000
C000
E000
7F00
1F00
ENDCHAR
STARTCHAR 0116
ENCODING 278
SWIDTH 565 0
DWIDTH 11 0
BBX 8 17 2 0
BITMAP
18
18
00
FF
FF
C0
C0
C0
C0
FC
FC
C0
C0
C0
C0
FF
FF
ENDCHAR
STARTCHAR 0117
ENCODING 279
SWIDTH 617 0
DWIDTH 12 0
BBX 10 14 1 0
BITMAP
0C00
0C00
0000
0000
1F00
7F80
61C0
C0C0
FFC0
FFC0
C000
6000
7F80
1F80
ENDCHAR
STARTCHAR 0118
ENCODING 280
SWIDTH 565 0
DWIDTH 11 0
BBX 8 19 2 -5
BITMAP
FF
FF
C0
C0
C0
C0
FE
FE
C0
C0
C0
C0
FF
FF
06
0C
0C
0F
07
ENDCHAR
STARTCHAR 0119
ENCODING 281
SWIDTH 565 0
DWIDTH 11 0
BBX 9 15 1 -5
BITMAP
3E00
7F00
6380
C180
FF80
FF80
C000
C000
7F00
1F00
0600
0C00
0C00
0F00
0700
ENDCHAR
STARTCHAR 011A
ENCODING 282
SWIDTH 565 0
DWIDTH 11 0
BBX 8 17 2 0
BITMAP
66
3C
00
FF
FF
C0
C0
C0
C0
FE
FE
C0
C0
C0
C0
FF
FF
ENDCHAR
STARTCHAR 011B
ENCODING 283
SWIDTH 565 0
DWIDTH 11 0
BBX 9 14 1 0
BITMAP
3300
3600
1C00
0000
3E00
7F00
4180
C180
FF80
C000
C000
E000
7F00
1F00
ENDCHAR
STARTCHAR 011C
ENCODING 284
SWIDTH 668 0
DWIDTH 13 0
BBX 11 17 1 0
BITMAP
0700
0D80
0000
0FC0
3FC0
7000
6000
C000
C000
C000
C060
C060
C060
6060
7060
3FE0
0FE0
ENDCHAR
STARTCHAR 011D
ENCODING 285
SWIDTH 617 0
DWIDTH 12 0
BBX 10 19 1 -5
BITMAP
1C00
3600
6600
0000
3DC0
7FC0
C300
C300
C300
7E00
7C00
C000
FC00
7F00
4180
C180
C180
FF00
7E00
ENDCHAR
STARTCHAR 011E
ENCODING 286
SWIDTH 668 0
DWIDTH 13 0
BBX 11 17 1 1
BITMAP
1FC0
0F80
0000
0FC0
3FC0
7000
6000
C000
C000
C000
C060
C060
C060
6060
7060
3FE0
0FE0
ENDCHAR
STARTCHAR 011F
ENCODING 287
SWIDTH 617 0
DWIDTH 12 0
BBX 10 19 1 -5
BITMAP
6200
3E00
1C00
0000
3DC0
7FC0
C300
C300
C300
7E00
7C00
C000
FC00
7F00
4180
C180
C180
FF00
7E00
ENDCHAR
STARTCHAR 0120
ENCODING 288
SWIDTH 668 0
DWIDTH 13 0
BBX 11 17 1 0
BITMAP
0600
0600
0000
0FC0
3FC0
7000
6000
C000
C000
C000
C060
C060
C060
6060
7060
3FE0
0FE0
ENDCHAR
STARTCHAR 0121
ENCODING 289
SWIDTH 617 0
DWIDTH 12 0
BBX 10 19 1 -5
BITMAP
1800
1800
0000
0000
3DC0
7FC0
C300
C300
C300
7E00
7C00
C000
FC00
7F00
4180
C180
C180
FF00
7E00
ENDCHAR
STARTCHAR 0122
ENCODING 290
SWIDTH 668 0
DWIDTH 13 0
BBX 11 19 1 -5
BITMAP
0FC0
3FC0
7000
6000
C000
C000
C000
C060
C060
C060
6060
7060
3FE0
0FE0
0000
0300
0300
0600
0600
ENDCHAR
STARTCHAR 0123
ENCODING 291
SWIDTH 617 0
DWIDTH 12 0
BBX 10 19 1 -5
BITMAP
0C00
0C00
1800
0000
3DC0
7FC0
C300
C300
C300
7E00
7C00
C000
FC00
7F00
4180
C180
C180
FF00
7E00
ENDCHAR
STARTCHAR 0124
ENCODING 292
SWIDTH 720 0
DWIDTH 14 0
BBX 10 17 2 0
BITMAP
1E00
3300
0000
C0C0
C0C0
C0C0
C0C0
C0C0
C0C0
FFC0
FFC0
C0C0
C0C0
C0C0
C0C0
C0C0
C0C0
ENDCHAR
STARTCHAR 0125
ENCODING 293
SWIDTH 565 0
DWIDTH 11 0
BBX 8 18 2 0
BITMAP
10
78
CC
00
C0
C0
C0
C0
DE
FF
E3
C3
C3
C3
C3
C3
C3
C3
ENDCHAR
STARTCHAR 0126
ENCODING 294
SWIDTH 720 0
DWIDTH 14 0
BBX 13 14 1 0
BITMAP
6060
6060
FFF8
FFF8
6060
6060
7FE0
7FE0
6060
6060
6060
6060
6060
6060
ENDCHAR
STARTCHAR 0127
ENCODING 295
SWIDTH 565 0
DWIDTH 11 0
BBX 9 14 1 0
BITMAP
6000
FC00
FC00
6000
6F00
7F80
7180
6180
6180
6180
6180
6180
6180
6180
ENDCHAR
STARTCHAR 0128
ENCODING 296
SWIDTH 308 0
DWIDTH 6 0
BBX 6 18 0 0
BITMAP
40
FC
1C
00
30
30
30
30
30
30
30
30
30
30
30
30
30
30
ENDCHAR
STARTCHAR 0129
ENCODING 297
SWIDTH 308 0
DWIDTH 6 0
BBX 7 14 -1 0
BITMAP
72
FE
00
00
38
38
18
18
18
18
18
18
18
18
ENDCHAR
STARTCHAR 012A
ENCODING 298
SWIDTH 308 0
DWIDTH 6 0
BBX 6 17 0 0
BITMAP
FC
FC
00
30
30
30
30
30
30
30
30
30
30
30
30
30
30
ENDCHAR
STARTCHAR 012B
ENCODING 299
SWIDTH 308 0
DWIDTH 6 0
BBX 5 14 0 0
BITMAP
F8
F8
00
00
70
70
30
30
30
30
30
30
30
30
ENDCHAR
STARTCHAR 012C
ENCODING 300
SWIDTH 308 0
DWIDTH 6 0
BBX 6 17 0 0
BITMAP
CC
FC
00
30
30
30
30
30
30
30
30
30
30
30
30
30
30
ENDCHAR
STARTCHAR 012D
ENCODING 301
SWIDTH 308 0
DWIDTH 6 0
BBX 7 14 -1 0
BITMAP
C6
7E
3C
00
38
38
18
18
18
18
18
18
18
18
ENDCHAR
STARTCHAR 012E
ENCODING 302
SWIDTH 308 0
DWIDTH 6 0
BBX 4 19 1 -5
BITMAP
60
60
60
60
60
60
60
60
60
60
60
60
60
60
60
C0
C0
F0
70
ENDCHAR
STARTCHAR 012F
ENCODING 303
SWIDTH 308 0
DWIDTH 6 0
BBX 4 19 1 -5
BITMAP
60
60
00
00
E0
E0
60
60
60
60
60
60
60
60
60
C0
C0
F0
70
ENDCHAR
STARTCHAR 0130
ENCODING 304
SWIDTH 308 0
DWIDTH 6 0
BBX 2 17 2 0
BITMAP
C0
C0
00
C0
C0
C0
C0
C0
C0
C0
C0
C0
C0
C0
C0
C0
C0
ENDCHAR
STARTCHAR 0131
ENCODING 305
SWIDTH 308 0
DWIDTH 6 0
BBX 3 10 1 0
BITMAP
E0
E0
60
60
60
60
60
60
60
60
ENDCHAR
STARTCHAR 0132
ENCODING 306
SWIDTH 720 0
DWIDTH 14 0
BBX 10 14 2 0
BITMAP
C7C0
C7C0
C0C0
C0C0
C0C0
C0C0
C0C0
C0C0
C0C0
C0C0
C0C0
C0C0
C780
CF00
ENDCHAR
STARTCHAR 0133
ENCODING 307
SWIDTH 617 0
DWIDTH 12 0
BBX 9 18 1 -4
BITMAP
6300
6100
0000
0000
E380
E380
6180
6180
6180
6180
6180
6180
6180
6180
0180
0180
0F00
0400
ENDCHAR
STARTCHAR 0134
ENCODING 308
SWIDTH 411 0
DWIDTH 8 0
BBX 7 17 0 0
BITMAP
3C
66
00
7C
3C
0C
0C
0C
0C
0C
0C
0C
0C
0C
0C
7C
F8
ENDCHAR
STARTCHAR 0135
ENCODING 309
SWIDTH 308 0
DWIDTH 6 0
BBX 6 18 -1 -4
BITMAP
38
6C
44
00
38
38
18
18
18
18
18
18
18
18
18
18
F0
40
ENDCHAR
STARTCHAR 0136
ENCODING 310
SWIDTH 617 0
DWIDTH 12 0
BBX 9 19 2 -5
BITMAP
C180
C300
C700
C600
CC00
CC00
D800
D800
CC00
CE00
C600
C300
C180
C180
0000
0C00
0800
1800
1800
ENDCHAR
STARTCHAR 0137
ENCODING 311
SWIDTH 565 0
DWIDTH 11 0
BBX 8 19 2 -5
BITMAP
C0
C0
C0
C0
C7
C6
CC
D8
D8
D8
CC
CE
C6
C3
00
18
18
10
30
ENDCHAR
STARTCHAR 0138
ENCODING 312
SWIDTH 514 0
DWIDTH 10 0
BBX 8 10 1 0
BITMAP
C3
C6
CC
CC
D8
D8
CC
C6
C7
C3
ENDCHAR
STARTCHAR 0139
ENCODING 313
SWIDTH 514 0
DWIDTH 10 0
BBX 8 17 2 0
BITMAP
70
E0
00
C0
C0
C0
C0
C0
C0
C0
C0
C0
C0
C0
C0
FF
FF
ENDCHAR
STARTCHAR 013A
ENCODING 314
SWIDTH 360 0
DWIDTH 7 0
BBX 4 17 2 0
BITMAP
70
C0
00
C0
C0
C0
C0
C0
C0
C0
C0
C0
C0
C0
C0
F0
70
ENDCHAR
STARTCHAR 013B
ENCODING 315
SWIDTH 514 0
DWIDTH 10 0
BBX 8 19 2 -5
BITMAP
C0
C0
C0
C0
C0
C0
C0
C0
C0
C0
C0
C0
FF
FF
00
18
18
30
30
ENDCHAR
STARTCHAR 013C
ENCODING 316
SWIDTH 360 0
DWIDTH 7 0
BBX 4 19 2 -5
BITMAP
C0
C0
C0
C0
C0
C0
C0
C0
C0
C0
C0
C0
F0
70
00
60
60
60
40
ENDCHAR
STARTCHAR 013D
ENCODING 317
SWIDTH 514 0
DWIDTH 10 0
BBX 8 14 2 0
BITMAP
CC
CC
CC
CC
C0
C0
C0
C0
C0
C0
C0
C0
FF
FF
ENDCHAR
STARTCHAR 013E
ENCODING 318
SWIDTH 411 0
DWIDTH 8 0
BBX 6 14 2 0
BITMAP
CC
CC
CC
CC
C0
C0
C0
C0
C0
C0
C0
C0
F0
70
ENDCHAR
STARTCHAR 013F
ENCODING 319
SWIDTH 514 0
DWIDTH 10 0
BBX 8 14 2 0
BITMAP
C0
C0
C0
C0
C0
C6
C6
C0
C0
C0
C0
C0
FF
FF
ENDCHAR
STARTCHAR 0140
ENCODING 320
SWIDTH 411 0
DWIDTH 8 0
BBX 6 14 2 0
BITMAP
C0
C0
C0
C0
C0
CC
CC
C0
C0
C0
C0
C0
F0
78
ENDCHAR
STARTCHAR 0141
ENCODING 321
SWIDTH 514 0
DWIDTH 10 0
BBX 9 14 1 0
BITMAP
6000
6000
6000
6000
6400
7C00
7800
6000
E000
6000
6000
6000
7F80
7F80
ENDCHAR
STARTCHAR 0142
ENCODING 322
SWIDTH 308 0
DWIDTH 6 0
BBX 5 14 1 0
BITMAP
60
60
60
60
68
70
60
E0
60
60
60
60
78
38
ENDCHAR
STARTCHAR 0143
ENCODING 323
SWIDTH 720 0
DWIDTH 14 0
BBX 10 17 2 0
BITMAP
0700
0C00
0000
C0C0
E0C0
E0C0
F0C0
D0C0
D8C0
CCC0
CCC0
C6C0
C2C0
C3C0
C1C0
C1C0
C0C0
ENDCHAR
STARTCHAR 0144
ENCODING 324
SWIDTH 565 0
DWIDTH 11 0
BBX 8 14 2 0
BITMAP
0E
0C
18
00
DE
FF
E3
C3
C3
C3
C3
C3
C3
C3
ENDCHAR
STARTCHAR 0145
ENCODING 325
SWIDTH 720 0
DWIDTH 14 0
BBX 10 19 2 -5
BITMAP
C0C0
E0C0
E0C0
F0C0
D0C0
D8C0
CCC0
CCC0
C6C0
C2C0
C3C0
C1C0
C1C0
C0C0
0000
0C00
0C00
0C00
0800
ENDCHAR
STARTCHAR 0146
ENCODING 326
SWIDTH 565 0
DWIDTH 11 0
BBX 8 15 2 -5
BITMAP
DE
FF
E3
C3
C3
C3
C3
C3
C3
C3
00
18
18
10
10
ENDCHAR
STARTCHAR 0147
ENCODING 327
SWIDTH 720 0
DWIDTH 14 0
BBX 10 17 2 0
BITMAP
3300
1E00
0000
C0C0
E0C0
E0C0
F0C0
D0C0
D8C0
CCC0
CCC0
C6C0
C2C0
C3C0
C1C0
C1C0
C0C0
ENDCHAR
STARTCHAR 0148
ENCODING 328
SWIDTH 565 0
DWIDTH 11 0
BBX 8 14 2 0
BITMAP
66
3C
18
00
DE
FF
E3
C3
C3
C3
C3
C3
C3
C3
ENDCHAR
STARTCHAR 0149
ENCODING 329
SWIDTH 565 0
DWIDTH 11 0
BBX 10 14 0 0
BITMAP
4000
C000
C000
0000
3780
3FC0
38C0
30C0
30C0
30C0
30C0
30C0
30C0
30C0
ENDCHAR
STARTCHAR 014A
ENCODING 330
SWIDTH 720 0
DWIDTH 14 0
BBX 10 17 2 -4
BITMAP
C0C0
E0C0
E0C0
F0C0
D0C0
D8C0
CCC0
CCC0
C6C0
C6C0
C3C0
C1C0
C1C0
C0C0
00C0
01C0
0F80
ENDCHAR
STARTCHAR 014B
ENCODING 331
SWIDTH 565 0
DWIDTH 11 0
BBX 8 13 2 -4
BITMAP
DE
FF
E3
C3
C3
C3
C3
C3
C3
C3
03
03
1F
ENDCHAR
STARTCHAR 014C
ENCODING 332
SWIDTH 720 0
DWIDTH 14 0
BBX 12 17 1 0
BITMAP
1F80
1F80
0000
1F80
3FC0
6060
6060
C030
C030
C030
C030
C030
C030
6060
6060
3FC0
1F80
ENDCHAR
STARTCHAR 014D
ENCODING 333
SWIDTH 565 0
DWIDTH 11 0
BBX 9 14 1 0
BITMAP
3E00
3E00
0000
0000
3E00
7F00
E380
C180
C180
C180
C180
E380
7F00
3E00
ENDCHAR
STARTCHAR 014E
ENCODING 334
SWIDTH 720 0
DWIDTH 14 0
BBX 12 17 1 1
BITMAP
1F80
0F00
0000
1F80
3FC0
6060
6060
C030
C030
C030
C030
C030
C030
6060
6060
3FC0
1F80
ENDCHAR
STARTCHAR 014F
ENCODING 335
SWIDTH 565 0
DWIDTH 11 0
BBX 9 14 1 0
BITMAP
6200
3E00
0800
0000
3E00
7F00
E380
C180
C180
C180
C180
E380
7F00
3E00
ENDCHAR
STARTCHAR 0150
ENCODING 336
SWIDTH 720 0
DWIDTH 14 0
BBX 12 17 1 0
BITMAP
0CE0
1980
0000
1F80
3FC0
6060
6060
C030
C030
C030
C030
C030
C030
6060
6060
3FC0
1F80
ENDCHAR
STARTCHAR 0151
ENCODING 337
SWIDTH 565 0
DWIDTH 11 0
BBX 9 14 1 0
BITMAP
1980
3300
6600
0000
3E00
7F00
E380
C180
C180
C180
C180
E380
7F00
3E00
ENDCHAR
STARTCHAR 0152
ENCODING 338
SWIDTH 925 0
DWIDTH 18 0
BBX 16 14 1 0
BITMAP
1FFF
3FFF
60C0
60C0
C0C0
C0C0
C0FE
C0FE
C0C0
C0C0
60C0
60C0
3FFF
1FFF
ENDCHAR
STARTCHAR 0153
ENCODING 339
SWIDTH 925 0
DWIDTH 18 0
BBX 16 10 1 0
BITMAP
3E7C
7FFE
E3C3
C183
C1FF
C1FF
C180
E3C0
7FFE
3E3E
ENDCHAR
STARTCHAR 0154
ENCODING 340
SWIDTH 565 0
DWIDTH 11 0
BBX 9 17 2 0
BITMAP
0C00
1800
0000
FC00
FE00
C700
C300
C300
C300
C600
DC00
D800
CC00
C600
C600
C300
C180
ENDCHAR
STARTCHAR 0155
ENCODING 341
SWIDTH 411 0
DWIDTH 8 0
BBX 5 14 2 0
BITMAP
18
30
60
00
D8
F8
E0
C0
C0
C0
C0
C0
C0
C0
ENDCHAR
STARTCHAR 0156
ENCODING 342
SWIDTH 565 0
DWIDTH 11 0
BBX 9 19 2 -5
BITMAP
FC00
FE00
C700
C300
C300
C300
C600
DC00
D800
CC00
C600
C600
C300
C180
0000
0800
1800
1800
1800
ENDCHAR
STARTCHAR 0157
ENCODING 343
SWIDTH 411 0
DWIDTH 8 0
BBX 6 15 1 -5
BITMAP
6C
7C
70
60
60
60
60
60
60
60
00
60
60
C0
C0
ENDCHAR
STARTCHAR 0158
ENCODING 344
SWIDTH 565 0
DWIDTH 11 0
BBX 9 17 2 0
BITMAP
6C00
3800
0000
FC00
FE00
C700
C300
C300
C300
C600
DC00
D800
CC00
C600
C600
C300
C180
ENDCHAR
STARTCHAR 0159
ENCODING 345
SWIDTH 411 0
DWIDTH 8 0
BBX 6 14 2 0
BITMAP
CC
78
30
00
D8
F8
E0
C0
C0
C0
C0
C0
C0
C0
ENDCHAR
STARTCHAR 015A
ENCODING 346
SWIDTH 514 0
DWIDTH 10 0
BBX 8 17 1 0
BITMAP
0E
18
00
3E
7E
C0
C0
C0
F0
7C
1E
07
03
03
03
FE
FC
ENDCHAR
STARTCHAR 015B
ENCODING 347
SWIDTH 462 0
DWIDTH 9 0
BBX 7 14 1 0
BITMAP
0C
18
30
00
7E
FC
C0
E0
78
1E
06
06
FE
F8
ENDCHAR
STARTCHAR 015C
ENCODING 348
SWIDTH 514 0
DWIDTH 10 0
BBX 8 17 1 0
BITMAP
3C
66
00
3E
7E
C0
C0
C0
F0
7C
1E
07
03
03
03
FE
FC
ENDCHAR
STARTCHAR 015D
ENCODING 349
SWIDTH 462 0
DWIDTH 9 0
BBX 7 14 1 0
BITMAP
38
6C
C6
00
7E
FC
C0
E0
78
1E
06
06
FE
F8
ENDCHAR
STARTCHAR 015E
ENCODING 350
SWIDTH 514 0
DWIDTH 10 0
BBX 8 19 1 -5
BITMAP
3F
7F
C0
C0
C0
F0
7C
1E
07
03
03
03
FE
FC
10
1C
06
06
3C
ENDCHAR
STARTCHAR 015F
ENCODING 351
SWIDTH 462 0
DWIDTH 9 0
BBX 7 15 1 -5
BITMAP
7E
FE
C0
C0
78
1E
06
06
FE
F8
20
38
0C
0C
78
ENDCHAR
STARTCHAR 0160
ENCODING 352
SWIDTH 514 0
DWIDTH 10 0
BBX 8 17 1 0
BITMAP
66
3C
00
3E
7E
C0
C0
C0
F0
7C
1E
07
03
03
03
FE
FC
ENDCHAR
STARTCHAR 0161
ENCODING 353
SWIDTH 462 0
DWIDTH 9 0
BBX 7 14 1 0
BITMAP
66
2C
38
00
7E
FC
C0
E0
78
1E
06
06
FE
F8
ENDCHAR
STARTCHAR 0162
ENCODING 354
SWIDTH 514 0
DWIDTH 10 0
BBX 10 19 0 -5
BITMAP
FFC0
FFC0
0C00
0C00
0C00
0C00
0C00
0C00
0C00
0C00
0C00
0C00
0C00
0C00
0000
0C00
0C00
0800
1800
ENDCHAR
STARTCHAR 0163
ENCODING 355
SWIDTH 360 0
DWIDTH 7 0
BBX 7 17 0 -5
BITMAP
10
30
7E
FE
30
30
30
30
30
30
3E
1E
00
0C
18
18
18
ENDCHAR
STARTCHAR 0164
ENCODING 356
SWIDTH 514 0
DWIDTH 10 0
BBX 10 17 0 0
BITMAP
3300
1E00
0000
FFC0
FFC0
0C00
0C00
0C00
0C00
0C00
0C00
0C00
0C00
0C00
0C00
0C00
0C00
ENDCHAR
STARTCHAR 0165
ENCODING 357
SWIDTH 360 0
DWIDTH 7 0
BBX 7 14 0 0
BITMAP
06
06
16
30
7C
FC
30
30
30
30
30
30
3C
1E
ENDCHAR
STARTCHAR 0166
ENCODING 358
SWIDTH 514 0
DWIDTH 10 0
BBX 10 14 0 0
BITMAP
FFC0
FFC0
0C00
0C00
0C00
0C00
7F80
7F80
0C00
0C00
0C00
0C00
0C00
0C00
ENDCHAR
STARTCHAR 0167
ENCODING 359
SWIDTH 360 0
DWIDTH 7 0
BBX 6 12 1 0
BITMAP
20
60
FC
FC
60
60
FC
FC
60
60
7C
3C
ENDCHAR
STARTCHAR 0168
ENCODING 360
SWIDTH 720 0
DWIDTH 14 0
BBX 10 18 2 0
BITMAP
1000
3F00
0700
0000
C0C0
C0C0
C0C0
C0C0
C0C0
C0C0
C0C0
C0C0
C0C0
C0C0
C0C0
6180
7F80
3F00
ENDCHAR
STARTCHAR 0169
ENCODING 361
SWIDTH 514 0
DWIDTH 10 0
BBX 8 14 1 0
BITMAP
72
7E
04
00
C3
C3
C3
C3
C3
C3
C3
C3
7F
3F
ENDCHAR
STARTCHAR 016A
ENCODING 362
SWIDTH 720 0
DWIDTH 14 0
BBX 10 17 2 0
BITMAP
3F00
3F00
0000
C0C0
C0C0
C0C0
C0C0
C0C0
C0C0
C0C0
C0C0
C0C0
C0C0
C0C0
6180
7F80
3F00
ENDCHAR
STARTCHAR 016B
ENCODING 363
SWIDTH 514 0
DWIDTH 10 0
BBX 8 14 1 0
BITMAP
3C
3E
00
00
C3
C3
C3
C3
C3
C3
C3
C3
7F
3F
ENDCHAR
STARTCHAR 016C
ENCODING 364
SWIDTH 720 0
DWIDTH 14 0
BBX 10 18 2 0
BITMAP
0100
3F00
1E00
0000
C0C0
C0C0
C0C0
C0C0
C0C0
C0C0
C0C0
C0C0
C0C0
C0C0
C0C0
6180
7F80
3F00
ENDCHAR
STARTCHAR 016D
ENCODING 365
SWIDTH 514 0
DWIDTH 10 0
BBX 8 14 1 0
BITMAP
66
3C
00
00
C3
C3
C3
C3
C3
C3
C3
C3
7F
3F
ENDCHAR
STARTCHAR 016E
ENCODING 366
SWIDTH 720 0
DWIDTH 14 0
BBX 10 19 2 0
BITMAP
0C00
1E00
1200
1E00
0C00
C0C0
C0C0
C0C0
C0C0
C0C0
C0C0
C0C0
C0C0
C0C0
C0C0
C0C0
6180
7F80
3F00
ENDCHAR
STARTCHAR 016F
ENCODING 367
SWIDTH 514 0
DWIDTH 10 0
BBX 8 15 1 0
BITMAP
18
3C
3C
18
00
C3
C3
C3
C3
C3
C3
C3
C3
7F
3F
ENDCHAR
STARTCHAR 0170
ENCODING 368
SWIDTH 720 0
DWIDTH 14 0
BBX 10 17 2 0
BITMAP
1DC0
3300
0000
C0C0
C0C0
C0C0
C0C0
C0C0
C0C0
C0C0
C0C0
C0C0
C0C0
C0C0
6180
7F80
3F00
ENDCHAR
STARTCHAR 0171
ENCODING 369
SWIDTH 514 0
DWIDTH 10 0
BBX 9 14 1 0
BITMAP
1B80
3300
6600
0000
C300
C300
C300
C300
C300
C300
C300
C300
7F00
3F00
ENDCHAR
STARTCHAR 0172
ENCODING 370
SWIDTH 720 0
DWIDTH 14 0
BBX 10 19 2 -5
BITMAP
C0C0
C0C0
C0C0
C0C0
C0C0
C0C0
C0C0
C0C0
C0C0
C0C0
C0C0
61C0
7F80
3F00
0C00
1800
1800
1E00
0E00
ENDCHAR
STARTCHAR 0173
ENCODING 371
SWIDTH 514 0
DWIDTH 10 0
BBX 8 15 1 -5
BITMAP
C3
C3
C3
C3
C3
C3
C3
C3
7F
3F
06
0C
0C
0C
07
ENDCHAR
STARTCHAR 0174
ENCODING 372
SWIDTH 925 0
DWIDTH 18 0
BBX 16 17 1 0
BITMAP
03C0
0660
0000
C183
C183
C3C3
C3C3
63C6
6246
6666
6666
2664
342C
3C3C
3C3C
1C38
1818
ENDCHAR
STARTCHAR 0175
ENCODING 373
SWIDTH 771 0
DWIDTH 15 0
BBX 14 14 1 0
BITMAP
0700
0D80
18C0
0000
C30C
C718
C718
C598
6D90
6DB0
68B0
28E0
38E0
3060
ENDCHAR
STARTCHAR 0176
ENCODING 374
SWIDTH 617 0
DWIDTH 12 0
BBX 10 17 1 0
BITMAP
1E00
3300
0000
C0C0
C0C0
6180
6180
3300
3300
1E00
1E00
0C00
0C00
0C00
0C00
0C00
0C00
ENDCHAR
STARTCHAR 0177
ENCODING 375
SWIDTH 514 0
DWIDTH 10 0
BBX 10 19 0 -5
BITMAP
0E00
1B00
3300
0000
E0C0
60C0
6180
6180
3180
3300
3300
1B00
1E00
1E00
0600
0C00
0C00
3C00
7800
ENDCHAR
STARTCHAR 0178
ENCODING 376
SWIDTH 617 0
DWIDTH 12 0
BBX 10 17 1 0
BITMAP
3300
3300
0000
C0C0
C0C0
6180
6180
3300
3300
1E00
1E00
0C00
0C00
0C00
0C00
0C00
0C00
ENDCHAR
STARTCHAR 0179
ENCODING 377
SWIDTH 565 0
DWIDTH 11 0
BBX 9 17 1 0
BITMAP
0700
0C00
0000
FF80
FF80
0300
0700
0600
0E00
0C00
1800
1800
3000
7000
6000
FF80
FF80
ENDCHAR
STARTCHAR 017A
ENCODING 378
SWIDTH 462 0
DWIDTH 9 0
BBX 8 14 1 0
BITMAP
0E
18
30
00
FF
FE
0C
1C
18
30
30
60
FE
FF
ENDCHAR
STARTCHAR 017B
ENCODING 379
SWIDTH 565 0
DWIDTH 11 0
BBX 9 17 1 0
BITMAP
0C00
0C00
0000
7F80
7F80
0300
0700
0600
0E00
0C00
1C00
1800
3000
3000
6000
FF80
FF80
ENDCHAR
STARTCHAR 017C
ENCODING 380
SWIDTH 462 0
DWIDTH 9 0
BBX 8 14 1 0
BITMAP
18
18
00
00
FF
7E
0C
0C
18
30
30
60
7E
FF
ENDCHAR
STARTCHAR 017D
ENCODING 381
SWIDTH 565 0
DWIDTH 11 0
BBX 9 17 1 0
BITMAP
3300
1E00
0000
FF80
FF80
0300
0700
0600
0E00
0C00
1800
1800
3000
7000
6000
FF80
FF80
ENDCHAR
STARTCHAR 017E
ENCODING 382
SWIDTH 462 0
DWIDTH 9 0
BBX 8 14 1 0
BITMAP
66
3C
18
00
FF
FE
0C
1C
18
30
30
60
FE
FF
ENDCHAR
STARTCHAR 017F
ENCODING 383
SWIDTH 360 0
DWIDTH 7 0
BBX 5 14 2 0
BITMAP
38
78
C0
C0
C0
C0
C0
C0
C0
C0
C0
C0
C0
C0
ENDCHAR
STARTCHAR 0192
ENCODING 402
SWIDTH 565 0
DWIDTH 11 0
BBX 9 16 1 -2
BITMAP
0380
0780
0C00
0C00
0C00
3F00
3F00
0800
1800
1800
1800
1800
1800
3000
F000
E000
ENDCHAR
STARTCHAR 0218
ENCODING 536
SWIDTH 514 0
DWIDTH 10 0
BBX 8 19 1 -5
BITMAP
3E
7E
C0
C0
C0
F0
7C
1E
07
03
03
03
FE
FC
00
18
18
10
30
ENDCHAR
STARTCHAR 0219
ENCODING 537
SWIDTH 462 0
DWIDTH 9 0
BBX 7 15 1 -5
BITMAP
7E
FC
C0
E0
78
1E
06
06
FE
F8
00
18
30
30
30
ENDCHAR
STARTCHAR 021A
ENCODING 538
SWIDTH 514 0
DWIDTH 10 0
BBX 10 19 0 -5
BITMAP
FFC0
FFC0
0C00
0C00
0C00
0C00
0C00
0C00
0C00
0C00
0C00
0C00
0C00
0C00
0000
0C00
0C00
1800
1800
ENDCHAR
STARTCHAR 021B
ENCODING 539
SWIDTH 360 0
DWIDTH 7 0
BBX 7 17 0 -5
BITMAP
10
30
7E
FE
30
30
30
30
30
30
3E
1E
00
0C
18
18
18
ENDCHAR
STARTCHAR 0237
ENCODING 567
SWIDTH 308 0
DWIDTH 6 0
BBX 5 14 -1 -4
BITMAP
38
38
18
18
18
18
18
18
18
18
18
18
F0
40
ENDCHAR
STARTCHAR 02BC
ENCODING 700
SWIDTH 308 0
DWIDTH 6 0
BBX 2 3 2 11
BITMAP
C0
C0
80
ENDCHAR
STARTCHAR 02C6
ENCODING 710
SWIDTH 514 0
DWIDTH 10 0
BBX 6 3 2 11
BITMAP
20
78
CC
ENDCHAR
STARTCHAR 02C7
ENCODING 711
SWIDTH 514 0
DWIDTH 10 0
BBX 6 2 2 12
BITMAP
DC
70
ENDCHAR
STARTCHAR 02C9
ENCODING 713
SWIDTH 514 0
DWIDTH 10 0
BBX 5 2 2 12
BITMAP
F8
F8
ENDCHAR
STARTCHAR 02D8
ENCODING 728
SWIDTH 514 0
DWIDTH 10 0
BBX 6 2 2 12
BITMAP
FC
78
ENDCHAR
STARTCHAR 02D9
ENCODING 729
SWIDTH 308 0
DWIDTH 6 0
BBX 2 2 2 12
BITMAP
C0
C0
ENDCHAR
STARTCHAR 02DA
ENCODING 730
SWIDTH 514 0
DWIDTH 10 0
BBX 4 4 3 12
BITMAP
F0
90
F0
60
ENDCHAR
STARTCHAR 02DB
ENCODING 731
SWIDTH 514 0
DWIDTH 10 0
BBX 4 4 3 -4
BITMAP
60
C0
C0
F0
ENDCHAR
STARTCHAR 02DC
ENCODING 732
SWIDTH 514 0
DWIDTH 10 0
BBX 6 3 2 11
BITMAP
40
FC
1C
ENDCHAR
STARTCHAR 02DD
ENCODING 733
SWIDTH 514 0
DWIDTH 10 0
BBX 8 3 1 11
BITMAP
13
66
CC
ENDCHAR
STARTCHAR 03A9
ENCODING 937
SWIDTH 720 0
DWIDTH 14 0
BBX 13 14 1 0
BITMAP
1F80
3FC0
70E0
6070
C030
C030
C030
C030
C030
E030
6060
6060
F0F8
F9F8
ENDCHAR
STARTCHAR 03C0
ENCODING 960
SWIDTH 771 0
DWIDTH 15 0
BBX 13 10 1 0
BITMAP
7FF0
FFF0
18C0
18C0
18C0
18C0
18C0
18C0
18F0
1878
ENDCHAR
STARTCHAR 1E80
ENCODING 7808
SWIDTH 925 0
DWIDTH 18 0
BBX 16 17 1 0
BITMAP
0700
0180
0000
C183
C183
C3C3
C3C3
63C6
6246
6666
6666
2664
342C
3C3C
3C3C
1C38
1818
ENDCHAR
STARTCHAR 1E81
ENCODING 7809
SWIDTH 771 0
DWIDTH 15 0
BBX 14 14 1 0
BITMAP
0C00
0600
0300
0000
C30C
C718
C718
C598
6D90
6DB0
68B0
28E0
38E0
3060
ENDCHAR
STARTCHAR 1E82
ENCODING 7810
SWIDTH 925 0
DWIDTH 18 0
BBX 16 17 1 0
BITMAP
00C0
0180
0000
C183
C183
C3C3
C3C3
63C6
6246
6666
6666
2664
342C
3C3C
3C3C
1C38
1818
ENDCHAR
STARTCHAR 1E83
ENCODING 7811
SWIDTH 771 0
DWIDTH 15 0
BBX 14 14 1 0
BITMAP
0180
0300
0600
0000
C30C
C718
C718
C598
6D90
6DB0
68B0
28E0
38E0
3060
ENDCHAR
STARTCHAR 1E84
ENCODING 7812
SWIDTH 925 0
DWIDTH 18 0
BBX 16 17 1 0
BITMAP
0660
0660
0000
C183
C183
C3C3
63C2
63C6
6246
6266
2666
3664
342C
343C
1C3C
1C38
1818
ENDCHAR
STARTCHAR 1E85
ENCODING 7813
SWIDTH 822 0
DWIDTH 16 0
BBX 14 14 1 0
BITMAP
0CC0
0CC0
0000
0000
C30C
C30C
4788
6798
6498
64D0
2CD0
3CF0
3870
1860
ENDCHAR
STARTCHAR 1EF2
ENCODING 7922
SWIDTH 617 0
DWIDTH 12 0
BBX 10 17 1 0
BITMAP
1800
0C00
0000
C0C0
C0C0
6180
6180
3300
3300
1E00
1E00
0C00
0C00
0C00
0C00
0C00
0C00
ENDCHAR
STARTCHAR 1EF3
ENCODING 7923
SWIDTH 514 0
DWIDTH 10 0
BBX 10 19 0 -5
BITMAP
1800
0C00
0600
0000
E0C0
60C0
6180
6180
3180
3300
3300
1B00
1E00
1E00
0600
0C00
0C00
3C00
7800
ENDCHAR
STARTCHAR 2013
ENCODING 8211
SWIDTH 514 0
DWIDTH 10 0
BBX 10 2 0 4
BITMAP
FFC0
FFC0
ENDCHAR
STARTCHAR 2014
ENCODING 8212
SWIDTH 977 0
DWIDTH 19 0
BBX 20 2 0 4
BITMAP
FFFFE0
FFFFF0
ENDCHAR
STARTCHAR 2018
ENCODING 8216
SWIDTH 257 0
DWIDTH 5 0
BBX 3 4 1 10
BITMAP
C0
C0
60
60
ENDCHAR
STARTCHAR 2019
ENCODING 8217
SWIDTH 257 0
DWIDTH 5 0
BBX 3 4 1 10
BITMAP
60
60
C0
C0
ENDCHAR
STARTCHAR 201A
ENCODING 8218
SWIDTH 257 0
DWIDTH 5 0
BBX 3 4 1 -1
BITMAP
60
60
C0
C0
ENDCHAR
STARTCHAR 201C
ENCODING 8220
SWIDTH 462 0
DWIDTH 9 0
BBX 7 4 1 10
BITMAP
CC
CC
6C
66
ENDCHAR
STARTCHAR 201D
ENCODING 8221
SWIDTH 462 0
DWIDTH 9 0
BBX 7 4 1 10
BITMAP
66
64
CC
CC
ENDCHAR
STARTCHAR 201E
ENCODING 8222
SWIDTH 462 0
DWIDTH 9 0
BBX 7 4 1 -1
BITMAP
66
6C
CC
CC
ENDCHAR
STARTCHAR 2020
ENCODING 8224
SWIDTH 514 0
DWIDTH 10 0
BBX 8 17 1 -3
BITMAP
18
18
18
18
18
FF
FF
18
18
18
18
18
18
18
18
18
18
ENDCHAR
STARTCHAR 2021
ENCODING 8225
SWIDTH 514 0
DWIDTH 10 0
BBX 8 17 1 -3
BITMAP
18
18
18
18
FF
FF
18
18
18
18
FF
FF
18
18
18
18
10
ENDCHAR
STARTCHAR 2022
ENCODING 8226
SWIDTH 360 0
DWIDTH 7 0
BBX 5 5 1 5
BITMAP
70
F8
F8
F8
70
ENDCHAR
STARTCHAR 2026
ENCODING 8230
SWIDTH 720 0
DWIDTH 14 0
BBX 12 2 1 0
BITMAP
C630
C630
ENDCHAR
STARTCHAR 2030
ENCODING 8240
SWIDTH 1491 0
DWIDTH 29 0
BBX 27 14 1 0
BITMAP
38060000
7C0C0000
C6180000
C6180000
C6300000
C6600000
CE678380
7CCCC6C0
11986C60
01986C60
03186C60
06186C60
060FC7C0
0C078380
ENDCHAR
STARTCHAR 2039
ENCODING 8249
SWIDTH 360 0
DWIDTH 7 0
BBX 5 9 1 1
BITMAP
18
30
70
60
C0
60
70
30
18
ENDCHAR
STARTCHAR 203A
ENCODING 8250
SWIDTH 360 0
DWIDTH 7 0
BBX 5 9 1 1
BITMAP
C0
60
30
30
18
30
30
60
C0
ENDCHAR
STARTCHAR 2044
ENCODING 8260
SWIDTH 205 0
DWIDTH 4 0
BBX 11 14 -3 0
BITMAP
0060
00C0
0180
0300
0300
0600
0C00
0C00
1800
3000
3000
6000
C000
C000
ENDCHAR
STARTCHAR 2070
ENCODING 8304
SWIDTH 462 0
DWIDTH 9 0
BBX 7 8 1 6
BITMAP
38
6C
C6
C6
C6
C6
6C
38
ENDCHAR
STARTCHAR 2074
ENCODING 8308
SWIDTH 462 0
DWIDTH 9 0
BBX 7 7 1 7
BITMAP
30
30
60
4C
FE
0C
0C
ENDCHAR
STARTCHAR 2075
ENCODING 8309
SWIDTH 411 0
DWIDTH 8 0
BBX 6 8 1 6
BITMAP
7C
60
60
78
1C
0C
DC
F8
ENDCHAR
STARTCHAR 2076
ENCODING 8310
SWIDTH 462 0
DWIDTH 9 0
BBX 7 8 1 6
BITMAP
18
70
40
FC
C6
C6
EE
78
ENDCHAR
STARTCHAR 2077
ENCODING 8311
SWIDTH 462 0
DWIDTH 9 0
BBX 6 8 2 6
BITMAP
FC
08
18
18
30
30
60
60
ENDCHAR
STARTCHAR 2078
ENCODING 8312
SWIDTH 462 0
DWIDTH 9 0
BBX 7 8 1 6
BITMAP
78
FC
CC
78
6C
C6
EE
7C
ENDCHAR
STARTCHAR 2079
ENCODING 8313
SWIDTH 462 0
DWIDTH 9 0
BBX 7 8 1 6
BITMAP
78
EC
C6
C6
7E
0C
1C
30
ENDCHAR
STARTCHAR 2080
ENCODING 8320
SWIDTH 462 0
DWIDTH 9 0
BBX 7 8 1 0
BITMAP
38
6C
C6
C6
C6
C6
6C
38
ENDCHAR
STARTCHAR 2081
ENCODING 8321
SWIDTH 462 0
DWIDTH 9 0
BBX 5 8 2 0
BITMAP
30
F0
B0
30
30
30
30
F8
ENDCHAR
STARTCHAR 2082
ENCODING 8322
SWIDTH 411 0
DWIDTH 8 0
BBX 6 8 1 0
BITMAP
F8
5C
0C
0C
18
30
60
FC
ENDCHAR
STARTCHAR 2083
ENCODING 8323
SWIDTH 411 0
DWIDTH 8 0
BBX 6 8 1 0
BITMAP
F8
18
30
38
0C
0C
98
F0
ENDCHAR
STARTCHAR 2084
ENCODING 8324
SWIDTH 462 0
DWIDTH 9 0
BBX 7 8 1 1
BITMAP
30
30
60
6C
4C
FE
0C
0C
ENDCHAR
STARTCHAR 2085
ENCODING 8325
SWIDTH 411 0
DWIDTH 8 0
BBX 6 8 1 0
BITMAP
7C
60
60
78
1C
0C
DC
F8
ENDCHAR
STARTCHAR 2086
ENCODING 8326
SWIDTH 462 0
DWIDTH 9 0
BBX 7 8 1 0
BITMAP
18
70
40
FC
CE
C6
EE
78
ENDCHAR
STARTCHAR 2087
ENCODING 8327
SWIDTH 462 0
DWIDTH 9 0
BBX 6 8 2 0
BITMAP
FC
08
18
18
30
30
60
60
ENDCHAR
STARTCHAR 2088
ENCODING 8328
SWIDTH 462 0
DWIDTH 9 0
BBX 7 8 1 0
BITMAP
78
FC
CC
78
6C
C6
EE
7C
ENDCHAR
STARTCHAR 2089
ENCODING 8329
SWIDTH 462 0
DWIDTH 9 0
BBX 7 8 1 0
BITMAP
78
EC
C6
C6
7E
0C
1C
30
ENDCHAR
STARTCHAR 20AC
ENCODING 8364
SWIDTH 617 0
DWIDTH 12 0
BBX 10 14 1 0
BITMAP
0FC0
1FC0
3000
3000
6000
FF00
FF00
6000
FF00
FF00
7000
3000
1FC0
0FC0
ENDCHAR
STARTCHAR 2113
ENCODING 8467
SWIDTH 462 0
DWIDTH 9 0
BBX 7 13 1 0
BITMAP
3C
64
66
64
64
6C
78
70
60
E0
62
7E
3C
ENDCHAR
STARTCHAR 2122
ENCODING 8482
SWIDTH 822 0
DWIDTH 16 0
BBX 15 8 0 6
BITMAP
FD8C
FD8C
31CC
31DC
3174
3136
3106
3106
ENDCHAR
STARTCHAR 2126
ENCODING 8486
SWIDTH 720 0
DWIDTH 14 0
BBX 13 14 1 0
BITMAP
0F80
3FC0
70E0
6070
6030
E030
C030
E030
6030
6030
6060
3060
F0F8
F9F8
ENDCHAR
STARTCHAR 212E
ENCODING 8494
SWIDTH 668 0
DWIDTH 13 0
BBX 11 11 1 0
BITMAP
0400
3B80
4040
C060
C060
FFE0
C000
C000
4000
2080
1F00
ENDCHAR
STARTCHAR 2153
ENCODING 8531
SWIDTH 1131 0
DWIDTH 22 0
BBX 18 14 2 0
BITMAP
300C00
F01800
B01800
303000
306000
306000
FCCFC0
FD8180
018300
030380
0600C0
0600C0
0C0FC0
180F80
ENDCHAR
STARTCHAR 2154
ENCODING 8532
SWIDTH 1080 0
DWIDTH 21 0
BBX 19 14 1 0
BITMAP
F80600
7C0600
0C0C00
0C1800
183000
303000
7C67E0
FCC0C0
00C180
0181C0
030060
030060
0607E0
0C07C0
ENDCHAR
STARTCHAR 2155
ENCODING 8533
SWIDTH 1131 0
DWIDTH 22 0
BBX 18 14 2 0
BITMAP
300C00
F00C00
B01800
303000
303000
306000
30CFC0
FCCF80
018C00
030F80
0301C0
0600C0
0C1FC0
0C1F00
ENDCHAR
STARTCHAR 2156
ENCODING 8534
SWIDTH 1080 0
DWIDTH 21 0
BBX 18 14 1 0
BITMAP
F80600
7C0600
0C0C00
0C1800
181800
303000
7C67C0
FC67C0
00C600
018780
0181C0
0300C0
060FC0
0C0F80
ENDCHAR
STARTCHAR 2157
ENCODING 8535
SWIDTH 1131 0
DWIDTH 22 0
BBX 18 14 2 0
BITMAP
FC0C00
F81800
301800
383000
1C6000
0CC000
0CCFC0
F98F80
430C00
030F80
060FC0
0C00C0
0C01C0
181F00
ENDCHAR
STARTCHAR 2158
ENCODING 8536
SWIDTH 1080 0
DWIDTH 21 0
BBX 19 14 1 0
BITMAP
100600
300600
200C00
601800
4C1800
FE3000
FE67E0
0C67E0
00C600
0187C0
0180E0
030060
060FE0
060F80
ENDCHAR
STARTCHAR 2159
ENCODING 8537
SWIDTH 1080 0
DWIDTH 21 0
BBX 18 14 2 0
BITMAP
300C00
F00C00
B01800
303000
303000
306000
30C300
FCCF00
018C00
031F80
0318C0
0618C0
0C1FC0
180F80
ENDCHAR
STARTCHAR 215A
ENCODING 8538
SWIDTH 1080 0
DWIDTH 21 0
BBX 19 14 1 0
BITMAP
7C0600
7C0C00
600C00
781800
7C3000
0C3000
0C6180
F8C780
208600
018FC0
030EE0
060C60
060C60
0C07C0
ENDCHAR
STARTCHAR 215B
ENCODING 8539
SWIDTH 1080 0
DWIDTH 21 0
BBX 18 14 2 0
BITMAP
300C00
F00C00
B01800
303000
306000
306000
30C780
FD8FC0
018CC0
030780
060D80
0618C0
0C1FC0
180F80
ENDCHAR
STARTCHAR 215C
ENCODING 8540
SWIDTH 1080 0
DWIDTH 21 0
BBX 18 14 2 0
BITMAP
FC0C00
F81800
303000
303000
1C6000
0CC000
0CC780
F98FC0
430CC0
030780
060D80
0C18C0
0C1FC0
180F80
ENDCHAR
STARTCHAR 215D
ENCODING 8541
SWIDTH 1080 0
DWIDTH 21 0
BBX 19 14 1 0
BITMAP
7C0600
7C0C00
601800
781800
7C3000
0C6000
0C6780
F8CFC0
218CC0
018780
0306C0
060C60
060FE0
0C07C0
ENDCHAR
STARTCHAR 215E
ENCODING 8542
SWIDTH 1131 0
DWIDTH 22 0
BBX 18 14 2 0
BITMAP
FC1800
F83000
183000
186000
30C000
30C000
618F00
631F80
031980
060F00
0C0D80
0C18C0
181FC0
300F80
ENDCHAR
STARTCHAR 2202
ENCODING 8706
SWIDTH 617 0
DWIDTH 12 0
BBX 10 14 1 0
BITMAP
3E00
7F00
0380
0180
00C0
1EC0
7FC0
E0C0
C0C0
C0C0
C1C0
E180
7F00
3E00
ENDCHAR
STARTCHAR 2206
ENCODING 8710
SWIDTH 617 0
DWIDTH 12 0
BBX 11 14 0 0
BITMAP
0600
0E00
0F00
0B00
1900
1980
1180
3180
30C0
30C0
60C0
6060
7FE0
FFE0
ENDCHAR
STARTCHAR 220F
ENCODING 8719
SWIDTH 771 0
DWIDTH 15 0
BBX 14 18 0 -4
BITMAP
FFFC
FFFC
1830
1830
1830
1830
1830
1830
1830
1830
1830
1830
1830
1830
1830
1830
1830
1830
ENDCHAR
STARTCHAR 2211
ENCODING 8721
SWIDTH 565 0
DWIDTH 11 0
BBX 10 18 0 -4
BITMAP
7FC0
7FC0
3000
3000
1800
1800
0C00
0C00
0600
0600
0C00
0C00
1800
3800
3000
7000
7FC0
FFC0
ENDCHAR
STARTCHAR 2212
ENCODING 8722
SWIDTH 617 0
DWIDTH 12 0
BBX 8 2 2 6
BITMAP
FF
FF
ENDCHAR
STARTCHAR 2215
ENCODING 8725
SWIDTH 411 0
DWIDTH 8 0
BBX 6 14 1 0
BITMAP
0C
0C
08
18
18
10
30
30
20
60
60
40
C0
C0
ENDCHAR
STARTCHAR 2219
ENCODING 8729
SWIDTH 257 0
DWIDTH 5 0
BBX 2 2 1 4
BITMAP
C0
C0
ENDCHAR
STARTCHAR 221A
ENCODING 8730
SWIDTH 617 0
DWIDTH 12 0
BBX 11 14 1 0
BITMAP
0060
0060
00C0
00C0
00C0
0180
E180
F180
3300
3300
1A00
1E00
1E00
0C00
ENDCHAR
STARTCHAR 221E
ENCODING 8734
SWIDTH 771 0
DWIDTH 15 0
BBX 14 7 1 2
BITMAP
3870
7CF8
C78C
C30C
C78C
7CF8
3870
ENDCHAR
STARTCHAR 222B
ENCODING 8747
SWIDTH 360 0
DWIDTH 7 0
BBX 8 19 -1 -5
BITMAP
0F
1F
18
18
18
18
18
18
18
18
18
18
18
18
18
18
18
F8
E0
ENDCHAR
STARTCHAR 2248
ENCODING 8776
SWIDTH 617 0
DWIDTH 12 0
BBX 8 6 2 4
BITMAP
60
FF
8E
00
FF
8E
ENDCHAR
STARTCHAR 2260
ENCODING 8800
SWIDTH 617 0
DWIDTH 12 0
BBX 8 10 2 2
BITMAP
06
04
FF
FF
18
10
FF
FF
20
40
ENDCHAR
STARTCHAR 2264
ENCODING 8804
SWIDTH 617 0
DWIDTH 12 0
BBX 8 11 2 1
BITMAP
07
1E
F8
C0
E0
7C
0F
03
00
FF
FF
ENDCHAR
STARTCHAR 2265
ENCODING 8805
SWIDTH 617 0
DWIDTH 12 0
BBX 8 11 2 1
BITMAP
C0
F8
1E
07
0F
3C
F0
80
00
FF
FF
ENDCHAR
STARTCHAR 25CA
ENCODING 9674
SWIDTH 514 0
DWIDTH 10 0
BBX 9 14 1 0
BITMAP
1800
3C00
3600
6600
6300
C300
C180
C180
C300
6300
6600
3600
3C00
1800
ENDCHAR
STARTCHAR F506
ENCODING 62726
SWIDTH 1080 0
DWIDTH 21 0
BBX 18 14 2 0
BITMAP
100C00
F01800
B01800
303000
306000
306000
30CFC0
FD8FC0
030180
030180
060300
0C0300
0C0600
180600
ENDCHAR
STARTCHAR F507
ENCODING 62727
SWIDTH 1080 0
DWIDTH 21 0
BBX 19 14 1 0
BITMAP
780600
5C0C00
0C0C00
0C1800
183000
383000
7067E0
FCC7C0
00C0C0
0180C0
030180
030180
060300
0C0300
ENDCHAR
STARTCHAR F508
ENCODING 62728
SWIDTH 1080 0
DWIDTH 21 0
BBX 18 14 1 0
BITMAP
FC0600
180C00
301800
381800
0C3000
0C6000
0C6FC0
F8CFC0
018080
030180
030100
060300
0C0300
0C0200
ENDCHAR
STARTCHAR F509
ENCODING 62729
SWIDTH 1080 0
DWIDTH 21 0
BBX 19 14 1 0
BITMAP
100600
300C00
200C00
6C1800
4C3000
FE6000
0C67E0
0CC0C0
0180C0
018080
030180
060100
060300
0C0200
ENDCHAR
STARTCHAR F50A
ENCODING 62730
SWIDTH 1080 0
DWIDTH 21 0
BBX 18 14 2 0
BITMAP
780C00
401800
C03000
F83000
1C6000
0CC000
1CCFC0
F98FC0
030180
060180
060300
0C0300
180200
180600
ENDCHAR
STARTCHAR F50B
ENCODING 62731
SWIDTH 1080 0
DWIDTH 21 0
BBX 19 14 1 0
BITMAP
180600
300C00
601800
FC1800
C63000
C66000
C667E0
7CC7C0
0180C0
0180C0
030180
060180
060300
0C0300
ENDCHAR
STARTCHAR F50C
ENCODING 62732
SWIDTH 1080 0
DWIDTH 21 0
BBX 18 14 2 0
BITMAP
100C00
F01800
B01800
303000
306000
306000
30CF80
FD9D80
0198C0
0318C0
060FC0
060080
0C0380
180600
ENDCHAR
STARTCHAR F50D
ENCODING 62733
SWIDTH 1080 0
DWIDTH 21 0
BBX 19 14 1 0
BITMAP
780600
5C0600
0C0C00
0C1800
183800
383000
6067C0
FCCEC0
00CC60
018C60
0307E0
030040
0601C0
0C0300
ENDCHAR
STARTCHAR F50E
ENCODING 62734
SWIDTH 1080 0
DWIDTH 21 0
BBX 19 14 1 0
BITMAP
100600
300C00
200C00
681800
4C3000
FC3000
0C67C0
0CCEC0
00CC60
018C60
0307E0
0300C0
0601C0
0C0300
ENDCHAR
STARTCHAR F50F
ENCODING 62735
SWIDTH 1080 0
DWIDTH 21 0
BBX 18 14 1 0
BITMAP
7C0600
600C00
401800
781800
0C3000
0C6000
0C6780
F8CFC0
018CC0
018CC0
0307C0
0600C0
060180
0C0300
ENDCHAR
STARTCHAR F510
ENCODING 62736
SWIDTH 1080 0
DWIDTH 21 0
BBX 18 14 2 0
BITMAP
FC1800
083000
183000
186000
30C000
31C000
618F80
631D80
0618C0
0618C0
0C0FC0
180180
180380
300600
ENDCHAR
STARTCHAR F511
ENCODING 62737
SWIDTH 1080 0
DWIDTH 21 0
BBX 19 14 1 0
BITMAP
780600
4C0C00
4C0C00
781800
6C3000
C42000
C467C0
7CCEC0
018C60
018C60
0307E0
0600C0
0601C0
0C0300
ENDCHAR
STARTCHAR F605
ENCODING 62981
SWIDTH 514 0
DWIDTH 10 0
BBX 10 10 0 1
BITMAP
0E00
1E00
1E00
1300
3300
3300
7F80
7F80
6180
C0C0
ENDCHAR
STARTCHAR F606
ENCODING 62982
SWIDTH 514 0
DWIDTH 10 0
BBX 8 11 2 0
BITMAP
FC
DE
C6
C6
CC
FC
C6
C3
C3
FE
FC
ENDCHAR
STARTCHAR F607
ENCODING 62983
SWIDTH 514 0
DWIDTH 10 0
BBX 8 11 1 0
BITMAP
1F
7F
60
C0
C0
C0
C0
C0
60
7F
1F
ENDCHAR
STARTCHAR F608
ENCODING 62984
SWIDTH 617 0
DWIDTH 12 0
BBX 9 11 2 0
BITMAP
F000
FE00
C700
C380
C180
C180
C180
C180
C300
FF00
FC00
ENDCHAR
STARTCHAR F609
ENCODING 62985
SWIDTH 514 0
DWIDTH 10 0
BBX 7 11 2 0
BITMAP
FE
FE
C0
C0
FC
FC
C0
C0
C0
FE
FE
ENDCHAR
STARTCHAR F60A
ENCODING 62986
SWIDTH 462 0
DWIDTH 9 0
BBX 7 11 2 0
BITMAP
FE
FE
C0
C0
C0
FC
FC
C0
C0
C0
C0
ENDCHAR
STARTCHAR F60B
ENCODING 62987
SWIDTH 565 0
DWIDTH 11 0
BBX 9 11 1 0
BITMAP
1F00
3F00
6000
C000
C000
C180
C180
C180
6180
7F80
1F80
ENDCHAR
STARTCHAR F60C
ENCODING 62988
SWIDTH 617 0
DWIDTH 12 0
BBX 9 11 2 0
BITMAP
C180
C180
C180
C180
C180
FF80
C180
C180
C180
C180
C180
ENDCHAR
STARTCHAR F60D
ENCODING 62989
SWIDTH 257 0
DWIDTH 5 0
BBX 2 11 2 0
BITMAP
C0
C0
C0
C0
C0
C0
C0
C0
C0
C0
C0
ENDCHAR
STARTCHAR F60E
ENCODING 62990
SWIDTH 360 0
DWIDTH 7 0
BBX 5 11 1 0
BITMAP
78
78
18
18
18
18
18
18
18
F0
F0
ENDCHAR
STARTCHAR F60F
ENCODING 62991
SWIDTH 565 0
DWIDTH 11 0
BBX 8 11 2 0
BITMAP
C3
C6
C6
CC
D8
F8
D8
CC
C6
C7
C3
ENDCHAR
STARTCHAR F610
ENCODING 62992
SWIDTH 462 0
DWIDTH 9 0
BBX 7 11 2 0
BITMAP
C0
C0
C0
C0
C0
C0
C0
C0
C0
FE
FE
ENDCHAR
STARTCHAR F611
ENCODING 62993
SWIDTH 720 0
DWIDTH 14 0
BBX 11 11 1 0
BITMAP
6060
60E0
70E0
F1E0
D160
DB60
CA60
CE60
C660
C060
C060
ENDCHAR
STARTCHAR F612
ENCODING 62994
SWIDTH 617 0
DWIDTH 12 0
BBX 9 11 2 0
BITMAP
C180
E180
E180
F180
D980
D980
CD80
C780
C780
C380
C180
ENDCHAR
STARTCHAR F613
ENCODING 62995
SWIDTH 617 0
DWIDTH 12 0
BBX 10 11 1 0
BITMAP
1E00
7F80
6180
C0C0
C0C0
C0C0
C0C0
C0C0
6180
7F80
1E00
ENDCHAR
STARTCHAR F614
ENCODING 62996
SWIDTH 514 0
DWIDTH 10 0
BBX 8 11 2 0
BITMAP
FC
FE
C3
C3
C3
C3
FE
FC
C0
C0
C0
ENDCHAR
STARTCHAR F615
ENCODING 62997
SWIDTH 617 0
DWIDTH 12 0
BBX 10 13 1 -2
BITMAP
1E00
7F80
6180
C0C0
C0C0
C0C0
C0C0
C0C0
6180
7F80
1E00
0180
03C0
ENDCHAR
STARTCHAR F616
ENCODING 62998
SWIDTH 514 0
DWIDTH 10 0
BBX 8 11 2 0
BITMAP
F8
FC
C6
C6
C6
CC
D8
CC
CC
C6
C3
ENDCHAR
STARTCHAR F617
ENCODING 62999
SWIDTH 462 0
DWIDTH 9 0
BBX 7 11 1 0
BITMAP
3C
FC
C0
C0
70
3C
0E
06
06
FC
F8
ENDCHAR
STARTCHAR F618
ENCODING 63000
SWIDTH 462 0
DWIDTH 9 0
BBX 9 11 0 0
BITMAP
FF80
FF80
0C00
0C00
0C00
0C00
0C00
0C00
0C00
0C00
0C00
ENDCHAR
STARTCHAR F619
ENCODING 63001
SWIDTH 617 0
DWIDTH 12 0
BBX 9 11 1 0
BITMAP
C180
C180
C180
C180
C180
C180
C180
C180
E380
7F00
3E00
ENDCHAR
STARTCHAR F61A
ENCODING 63002
SWIDTH 565 0
DWIDTH 11 0
BBX 10 11 0 0
BITMAP
E0C0
60C0
6080
3180
3180
3100
1B00
1B00
1A00
0E00
0E00
ENDCHAR
STARTCHAR F61B
ENCODING 63003
SWIDTH 822 0
DWIDTH 16 0
BBX 14 11 1 0
BITMAP
C30C
C30C
C70C
C798
4598
6D98
6C90
68D0
28F0
3870
3860
ENDCHAR
STARTCHAR F61C
ENCODING 63004
SWIDTH 514 0
DWIDTH 10 0
BBX 9 11 1 0
BITMAP
C300
C300
6700
6600
3600
3C00
3600
6600
6300
C300
C180
ENDCHAR
STARTCHAR F61D
ENCODING 63005
SWIDTH 514 0
DWIDTH 10 0
BBX 10 11 0 0
BITMAP
C0C0
6180
6100
3300
1200
1E00
0C00
0C00
0C00
0C00
0C00
ENDCHAR
STARTCHAR F61E
ENCODING 63006
SWIDTH 462 0
DWIDTH 9 0
BBX 8 11 1 0
BITMAP
FF
FE
06
0C
18
18
30
30
60
FF
FF
ENDCHAR
STARTCHAR F61F
ENCODING 63007
SWIDTH 822 0
DWIDTH 16 0
BBX 14 11 1 0
BITMAP
03FC
07FC
0D80
0D80
19F8
19F8
3180
7F80
7F80
C1FC
C1FC
ENDCHAR
STARTCHAR F620
ENCODING 63008
SWIDTH 617 0
DWIDTH 12 0
BBX 9 15 2 -4
BITMAP
C180
E180
E180
F180
D980
D980
CD80
C780
C780
C380
C180
0180
0180
0F00
0400
ENDCHAR
STARTCHAR F621
ENCODING 63009
SWIDTH 771 0
DWIDTH 15 0
BBX 13 11 1 0
BITMAP
3FF8
7FF8
6300
C300
C3F0
C3F0
C300
C300
6300
7FF8
1FF8
ENDCHAR
STARTCHAR F622
ENCODING 63010
SWIDTH 617 0
DWIDTH 12 0
BBX 10 11 1 0
BITMAP
7C00
7F00
6380
61C0
60C0
F8C0
60C0
60C0
6180
7F80
7E00
ENDCHAR
STARTCHAR F623
ENCODING 63011
SWIDTH 617 0
DWIDTH 12 0
BBX 11 11 1 0
BITMAP
60C0
60C0
FFE0
60C0
60C0
7FC0
60C0
60C0
60C0
60C0
60C0
ENDCHAR
STARTCHAR F624
ENCODING 63012
SWIDTH 617 0
DWIDTH 12 0
BBX 9 11 2 0
BITMAP
C780
C780
C180
C180
C180
C180
C180
C180
C180
CF80
CF00
ENDCHAR
STARTCHAR F625
ENCODING 63013
SWIDTH 257 0
DWIDTH 5 0
BBX 2 14 2 0
BITMAP
C0
C0
00
C0
C0
C0
C0
C0
C0
C0
C0
C0
C0
C0
ENDCHAR
STARTCHAR F626
ENCODING 63014
SWIDTH 257 0
DWIDTH 5 0
BBX 2 11 2 0
BITMAP
C0
C0
C0
C0
C0
C0
C0
C0
C0
C0
C0
ENDCHAR
STARTCHAR F627
ENCODING 63015
SWIDTH 617 0
DWIDTH 12 0
BBX 10 11 1 0
BITMAP
1EC0
7F80
6180
C3C0
C6C0
CCC0
D8C0
D0C0
6180
7F80
DE00
ENDCHAR
STARTCHAR F628
ENCODING 63016
SWIDTH 514 0
DWIDTH 10 0
BBX 8 11 2 0
BITMAP
C0
C0
FC
CE
C3
C3
C3
C6
FC
C0
C0
ENDCHAR
STARTCHAR F629
ENCODING 63017
SWIDTH 462 0
DWIDTH 9 0
BBX 9 11 0 0
BITMAP
FF80
FF80
0C00
0C00
0C00
3F00
0C00
0C00
0C00
0C00
0C00
ENDCHAR
STARTCHAR F62A
ENCODING 63018
SWIDTH 565 0
DWIDTH 11 0
BBX 8 11 2 0
BITMAP
C3
C6
C6
CC
D8
F8
D8
CC
C6
C7
C3
ENDCHAR
STARTCHAR F62B
ENCODING 63019
SWIDTH 462 0
DWIDTH 9 0
BBX 8 11 1 0
BITMAP
60
60
60
68
78
70
E0
E0
60
7F
7F
ENDCHAR
STARTCHAR F62C
ENCODING 63020
SWIDTH 617 0
DWIDTH 12 0
BBX 11 11 1 0
BITMAP
3C00
7C00
C000
6080
7FE0
7180
C180
C180
C180
7F00
3E00
ENDCHAR
STARTCHAR F637
ENCODING 63031
SWIDTH 925 0
DWIDTH 18 0
BBX 16 11 1 0
BITMAP
3C3E
FC7E
C060
C060
7078
3C1E
0E07
0603
0603
FC7E
F87C
ENDCHAR
STARTCHAR F638
ENCODING 63032
SWIDTH 565 0
DWIDTH 11 0
BBX 9 11 1 0
BITMAP
0700
1F80
3000
7000
FF00
6000
6000
FF00
7000
3F80
1F80
ENDCHAR
STARTCHAR F639
ENCODING 63033
SWIDTH 462 0
DWIDTH 9 0
BBX 7 14 1 -2
BITMAP
10
10
7E
C0
C0
E0
7C
0E
06
06
FC
F8
10
10
ENDCHAR
STARTCHAR F63A
ENCODING 63034
SWIDTH 462 0
DWIDTH 9 0
BBX 7 12 1 -2
BITMAP
08
08
3E
60
C0
C0
C0
C0
60
3E
08
08
ENDCHAR
STARTCHAR F63B
ENCODING 63035
SWIDTH 514 0
DWIDTH 10 0
BBX 8 11 1 0
BITMAP
0C
3F
70
60
60
FE
60
60
60
7F
FF
ENDCHAR
STARTCHAR F63C
ENCODING 63036
SWIDTH 514 0
DWIDTH 10 0
BBX 9 11 0 0
BITMAP
E080
6180
3300
3300
1E00
7F80
0C00
0C00
7F80
0C00
0C00
ENDCHAR
STARTCHAR F63D
ENCODING 63037
SWIDTH 462 0
DWIDTH 9 0
BBX 9 13 -1 -2
BITMAP
0180
0780
0C00
0C00
0C00
3F00
0C00
0C00
1800
1800
1800
F800
F000
ENDCHAR
STARTCHAR F63E
ENCODING 63038
SWIDTH 257 0
DWIDTH 5 0
BBX 2 11 2 0
BITMAP
C0
C0
C0
C0
C0
C0
C0
00
00
C0
C0
ENDCHAR
STARTCHAR F63F
ENCODING 63039
SWIDTH 411 0
DWIDTH 8 0
BBX 7 11 1 0
BITMAP
F8
FC
06
06
0C
38
30
00
00
30
30
ENDCHAR
STARTCHAR F640
ENCODING 63040
SWIDTH 462 0
DWIDTH 9 0
BBX 6 6 1 5
BITMAP
30
30
78
48
78
CC
ENDCHAR
STARTCHAR F641
ENCODING 63041
SWIDTH 411 0
DWIDTH 8 0
BBX 5 6 1 5
BITMAP
70
D8
88
88
C8
78
ENDCHAR
STARTCHAR F642
ENCODING 63042
SWIDTH 411 0
DWIDTH 8 0
BBX 7 11 1 0
BITMAP
18
18
00
00
18
38
60
C0
C0
FE
3E
ENDCHAR
STARTCHAR F643
ENCODING 63043
SWIDTH 257 0
DWIDTH 5 0
BBX 2 11 2 0
BITMAP
C0
C0
00
00
C0
C0
C0
C0
C0
C0
C0
ENDCHAR
STARTCHAR F644
ENCODING 63044
SWIDTH 514 0
DWIDTH 10 0
BBX 10 14 0 0
BITMAP
3300
1F00
0000
0000
0E00
1E00
1E00
1300
3300
3300
7F80
7F80
6180
C0C0
ENDCHAR
STARTCHAR F645
ENCODING 63045
SWIDTH 514 0
DWIDTH 10 0
BBX 10 13 0 0
BITMAP
3F00
0000
0000
0E00
1E00
1E00
1300
3300
3300
7F80
7F80
6180
C0C0
ENDCHAR
STARTCHAR F646
ENCODING 63046
SWIDTH 514 0
DWIDTH 10 0
BBX 10 15 0 -4
BITMAP
0C00
1E00
1E00
3300
3300
3300
7F80
7F80
6180
C0C0
00C0
0180
0300
0300
01C0
ENDCHAR
STARTCHAR F647
ENCODING 63047
SWIDTH 514 0
DWIDTH 10 0
BBX 10 14 0 0
BITMAP
3800
0C00
0000
0000
0E00
1E00
1E00
1300
3300
3300
7F80
7F80
6180
C0C0
ENDCHAR
STARTCHAR F648
ENCODING 63048
SWIDTH 565 0
DWIDTH 11 0
BBX 10 14 0 0
BITMAP
0700
0C00
0000
0000
0E00
1E00
1E00
1300
3300
3300
7F80
7F80
6180
C0C0
ENDCHAR
STARTCHAR F649
ENCODING 63049
SWIDTH 514 0
DWIDTH 10 0
BBX 10 14 0 0
BITMAP
0C00
3F00
0000
0000
0E00
1E00
1E00
1300
3300
3300
7F80
7F80
6180
C0C0
ENDCHAR
STARTCHAR F64A
ENCODING 63050
SWIDTH 514 0
DWIDTH 10 0
BBX 10 14 0 0
BITMAP
3D00
0700
0000
0000
0E00
1E00
1E00
1300
3300
3300
7F80
7F80
6180
C0C0
ENDCHAR
STARTCHAR F64B
ENCODING 63051
SWIDTH 514 0
DWIDTH 10 0
BBX 10 14 0 0
BITMAP
3300
3300
0000
0000
0E00
1E00
1E00
1300
3300
3300
7F80
7F80
6180
C0C0
ENDCHAR
STARTCHAR F64C
ENCODING 63052
SWIDTH 514 0
DWIDTH 10 0
BBX 10 15 0 0
BITMAP
0C00
1200
1200
1200
0C00
0C00
1E00
1E00
1200
3300
3300
3F00
7F80
6180
C1C0
ENDCHAR
STARTCHAR F64D
ENCODING 63053
SWIDTH 514 0
DWIDTH 10 0
BBX 8 14 1 0
BITMAP
06
0C
00
1F
7F
60
C0
C0
C0
C0
C0
60
7F
1F
ENDCHAR
STARTCHAR F64E
ENCODING 63054
SWIDTH 514 0
DWIDTH 10 0
BBX 8 14 1 0
BITMAP
33
1E
00
1F
7F
60
C0
C0
C0
C0
C0
60
7F
1F
ENDCHAR
STARTCHAR F64F
ENCODING 63055
SWIDTH 514 0
DWIDTH 10 0
BBX 8 14 1 0
BITMAP
0C
0C
00
1F
7F
60
C0
C0
C0
C0
C0
60
7F
1F
ENDCHAR
STARTCHAR F650
ENCODING 63056
SWIDTH 514 0
DWIDTH 10 0
BBX 8 14 1 0
BITMAP
1E
33
00
1F
7F
60
C0
C0
C0
C0
C0
60
7F
1F
ENDCHAR
STARTCHAR F651
ENCODING 63057
SWIDTH 514 0
DWIDTH 10 0
BBX 8 16 1 -5
BITMAP
1F
7F
60
C0
C0
C0
C0
C0
60
7F
1F
08
0C
02
02
1E
ENDCHAR
STARTCHAR F652
ENCODING 63058
SWIDTH 617 0
DWIDTH 12 0
BBX 9 14 2 0
BITMAP
6E00
3800
0000
F000
FE00
C700
C380
C180
C180
C180
C180
C300
FF00
FC00
ENDCHAR
STARTCHAR F653
ENCODING 63059
SWIDTH 617 0
DWIDTH 12 0
BBX 10 11 1 0
BITMAP
7C00
7F00
6380
61C0
60C0
F8C0
60C0
60C0
6180
7F80
7E00
ENDCHAR
STARTCHAR F654
ENCODING 63060
SWIDTH 514 0
DWIDTH 10 0
BBX 7 14 2 0
BITMAP
70
18
00
FE
FE
C0
C0
FC
FC
C0
C0
C0
FE
FE
ENDCHAR
STARTCHAR F655
ENCODING 63061
SWIDTH 514 0
DWIDTH 10 0
BBX 7 14 2 0
BITMAP
1C
30
00
FE
FE
C0
C0
FC
FC
C0
C0
C0
FE
FE
ENDCHAR
STARTCHAR F656
ENCODING 63062
SWIDTH 514 0
DWIDTH 10 0
BBX 7 14 2 0
BITMAP
78
EC
00
FE
FE
C0
C0
FC
FC
C0
C0
C0
FE
FE
ENDCHAR
STARTCHAR F657
ENCODING 63063
SWIDTH 514 0
DWIDTH 10 0
BBX 7 14 2 0
BITMAP
CC
CC
00
FE
FE
C0
C0
FC
FC
C0
C0
C0
FE
FE
ENDCHAR
STARTCHAR F658
ENCODING 63064
SWIDTH 514 0
DWIDTH 10 0
BBX 7 14 2 0
BITMAP
6C
38
00
FE
FE
C0
C0
FC
FC
C0
C0
C0
FE
FE
ENDCHAR
STARTCHAR F659
ENCODING 63065
SWIDTH 514 0
DWIDTH 10 0
BBX 7 14 2 0
BITMAP
38
38
00
FE
FE
C0
C0
FC
FC
C0
C0
C0
FE
FE
ENDCHAR
STARTCHAR F65A
ENCODING 63066
SWIDTH 514 0
DWIDTH 10 0
BBX 7 13 2 0
BITMAP
FC
00
FE
FE
C0
C0
FC
FC
C0
C0
C0
FE
FE
ENDCHAR
STARTCHAR F65B
ENCODING 63067
SWIDTH 462 0
DWIDTH 9 0
BBX 7 16 2 -5
BITMAP
FE
FE
C0
C0
FC
FC
C0
C0
C0
FE
FE
08
18
18
18
0E
ENDCHAR
STARTCHAR F65C
ENCODING 63068
SWIDTH 514 0
DWIDTH 10 0
BBX 7 14 2 0
BITMAP
CC
7C
00
FE
FE
C0
C0
FC
FC
C0
C0
C0
FE
FE
ENDCHAR
STARTCHAR F65D
ENCODING 63069
SWIDTH 565 0
DWIDTH 11 0
BBX 9 14 1 0
BITMAP
3300
1E00
0000
1F00
3F00
6000
C000
C000
C180
C180
C180
6180
7F80
1F80
ENDCHAR
STARTCHAR F65E
ENCODING 63070
SWIDTH 565 0
DWIDTH 11 0
BBX 9 16 1 -5
BITMAP
1F00
3F00
6000
C000
C000
C180
C180
C180
6180
7F80
1F80
0000
0600
0C00
0C00
0800
ENDCHAR
STARTCHAR F65F
ENCODING 63071
SWIDTH 565 0
DWIDTH 11 0
BBX 9 14 1 0
BITMAP
0C00
0C00
0000
1F00
7F00
6000
C000
C000
C180
C180
C180
6180
7F80
1F00
ENDCHAR
STARTCHAR F660
ENCODING 63072
SWIDTH 565 0
DWIDTH 11 0
BBX 9 14 1 0
BITMAP
1E00
3300
0000
1F00
3F00
6000
C000
C000
C180
C180
C180
6180
7F80
1F80
ENDCHAR
STARTCHAR F661
ENCODING 63073
SWIDTH 617 0
DWIDTH 12 0
BBX 9 14 2 0
BITMAP
1C00
7600
0000
C180
C180
C180
C180
C180
FF80
C180
C180
C180
C180
C180
ENDCHAR
STARTCHAR F662
ENCODING 63074
SWIDTH 257 0
DWIDTH 5 0
BBX 3 14 1 0
BITMAP
C0
60
00
60
60
60
60
60
60
60
60
60
60
60
ENDCHAR
STARTCHAR F663
ENCODING 63075
SWIDTH 257 0
DWIDTH 5 0
BBX 3 14 2 0
BITMAP
E0
C0
00
C0
C0
C0
C0
C0
C0
C0
C0
C0
C0
C0
ENDCHAR
STARTCHAR F664
ENCODING 63076
SWIDTH 257 0
DWIDTH 5 0
BBX 6 14 0 0
BITMAP
78
CC
00
30
30
30
30
30
30
30
30
30
30
30
ENDCHAR
STARTCHAR F665
ENCODING 63077
SWIDTH 257 0
DWIDTH 5 0
BBX 6 14 0 0
BITMAP
CC
CC
00
30
30
30
30
30
30
30
30
30
30
30
ENDCHAR
STARTCHAR F666
ENCODING 63078
SWIDTH 257 0
DWIDTH 5 0
BBX 6 13 0 0
BITMAP
FC
00
30
30
30
30
30
30
30
30
30
30
30
ENDCHAR
STARTCHAR F667
ENCODING 63079
SWIDTH 257 0
DWIDTH 5 0
BBX 4 15 0 -5
BITMAP
30
30
30
30
30
30
30
30
30
30
20
40
C0
C0
70
ENDCHAR
STARTCHAR F668
ENCODING 63080
SWIDTH 257 0
DWIDTH 5 0
BBX 6 14 0 0
BITMAP
F4
1C
00
30
30
30
30
30
30
30
30
30
30
30
ENDCHAR
STARTCHAR F669
ENCODING 63081
SWIDTH 257 0
DWIDTH 5 0
BBX 6 14 0 0
BITMAP
CC
78
00
30
30
30
30
30
30
30
30
30
30
30
ENDCHAR
STARTCHAR F66A
ENCODING 63082
SWIDTH 360 0
DWIDTH 7 0
BBX 6 14 1 0
BITMAP
78
DC
00
78
78
18
18
18
18
18
18
18
F0
F0
ENDCHAR
STARTCHAR F66B
ENCODING 63083
SWIDTH 565 0
DWIDTH 11 0
BBX 8 16 2 -5
BITMAP
C3
C6
C6
CC
D8
F8
D8
CC
C6
C7
C3
00
18
18
10
30
ENDCHAR
STARTCHAR F66C
ENCODING 63084
SWIDTH 462 0
DWIDTH 9 0
BBX 7 14 2 0
BITMAP
70
C0
00
C0
C0
C0
C0
C0
C0
C0
C0
C0
FE
FE
ENDCHAR
STARTCHAR F66D
ENCODING 63085
SWIDTH 462 0
DWIDTH 9 0
BBX 7 11 2 0
BITMAP
D8
D8
D8
D8
C0
C0
C0
C0
C0
FE
FE
ENDCHAR
STARTCHAR F66E
ENCODING 63086
SWIDTH 462 0
DWIDTH 9 0
BBX 7 16 2 -5
BITMAP
C0
C0
C0
C0
C0
C0
C0
C0
C0
FE
FE
00
18
30
30
20
ENDCHAR
STARTCHAR F66F
ENCODING 63087
SWIDTH 462 0
DWIDTH 9 0
BBX 7 11 2 0
BITMAP
C0
C0
C0
C0
CC
CC
C0
C0
C0
FE
FE
ENDCHAR
STARTCHAR F670
ENCODING 63088
SWIDTH 617 0
DWIDTH 12 0
BBX 9 14 2 0
BITMAP
0E00
1C00
0000
C180
E180
E180
F180
D980
D980
CD80
C780
C780
C380
C180
ENDCHAR
STARTCHAR F671
ENCODING 63089
SWIDTH 668 0
DWIDTH 13 0
BBX 12 14 0 0
BITMAP
6000
C000
C000
1830
1C30
1C30
1E30
1B30
1B30
19B0
18F0
18F0
1870
1830
ENDCHAR
STARTCHAR F672
ENCODING 63090
SWIDTH 617 0
DWIDTH 12 0
BBX 9 14 2 0
BITMAP
7F00
4E00
0000
C180
E180
E180
F180
D980
D980
CD80
C780
C780
C380
C180
ENDCHAR
STARTCHAR F673
ENCODING 63091
SWIDTH 617 0
DWIDTH 12 0
BBX 9 14 2 0
BITMAP
3600
1C00
0000
C180
E180
E180
F180
D980
D980
CD80
C780
C780
C380
C180
ENDCHAR
STARTCHAR F674
ENCODING 63092
SWIDTH 617 0
DWIDTH 12 0
BBX 9 16 2 -5
BITMAP
C180
E180
E180
F180
D980
D980
CD80
C780
C780
C380
C180
0000
0C00
1800
1800
1000
ENDCHAR
STARTCHAR F675
ENCODING 63093
SWIDTH 617 0
DWIDTH 12 0
BBX 10 14 1 0
BITMAP
1800
0C00
0000
1E00
7F80
6180
C0C0
C0C0
C0C0
C0C0
C0C0
6180
7F80
1E00
ENDCHAR
STARTCHAR F676
ENCODING 63094
SWIDTH 617 0
DWIDTH 12 0
BBX 10 14 1 0
BITMAP
0E00
1C00
0000
1E00
7F80
6180
C0C0
C0C0
C0C0
C0C0
C0C0
6180
7F80
1E00
ENDCHAR
STARTCHAR F677
ENCODING 63095
SWIDTH 617 0
DWIDTH 12 0
BBX 10 14 1 0
BITMAP
1E00
3300
0000
1E00
7F80
6180
C0C0
C0C0
C0C0
C0C0
C0C0
6180
7F80
1E00
ENDCHAR
STARTCHAR F678
ENCODING 63096
SWIDTH 617 0
DWIDTH 12 0
BBX 10 14 1 0
BITMAP
7D00
0700
0000
1E00
7F80
6180
C0C0
C0C0
C0C0
C0C0
C0C0
6180
7F80
1E00
ENDCHAR
STARTCHAR F679
ENCODING 63097
SWIDTH 617 0
DWIDTH 12 0
BBX 10 14 1 0
BITMAP
3300
3300
0000
1E00
7F00
6180
C180
C0C0
C0C0
C0C0
C1C0
6180
7F00
1E00
ENDCHAR
STARTCHAR F67A
ENCODING 63098
SWIDTH 617 0
DWIDTH 12 0
BBX 10 14 1 0
BITMAP
1DC0
3300
0000
1E00
7F80
6180
C0C0
C0C0
C0C0
C0C0
C0C0
6180
7F80
1E00
ENDCHAR
STARTCHAR F67B
ENCODING 63099
SWIDTH 617 0
DWIDTH 12 0
BBX 10 13 1 0
BITMAP
3F00
0000
1E00
7F80
6180
C0C0
C0C0
C0C0
C0C0
C0C0
6180
7F80
1E00
ENDCHAR
STARTCHAR F67C
ENCODING 63100
SWIDTH 617 0
DWIDTH 12 0
BBX 10 14 1 0
BITMAP
3300
1E00
0000
1E00
7F80
6180
C0C0
C0C0
C0C0
C0C0
C0C0
6180
7F80
1E00
ENDCHAR
STARTCHAR F67D
ENCODING 63101
SWIDTH 514 0
DWIDTH 10 0
BBX 8 14 2 0
BITMAP
18
30
00
F8
FC
C6
C6
C6
CC
D8
CC
CC
C6
C3
ENDCHAR
STARTCHAR F67E
ENCODING 63102
SWIDTH 514 0
DWIDTH 10 0
BBX 8 14 2 0
BITMAP
FC
70
00
F8
FC
C6
C6
C6
CC
D8
CC
CC
C6
C3
ENDCHAR
STARTCHAR F67F
ENCODING 63103
SWIDTH 514 0
DWIDTH 10 0
BBX 8 15 2 -4
BITMAP
F8
FC
C6
C6
C6
CC
D8
CC
CC
C6
C3
00
18
10
30
ENDCHAR
STARTCHAR F680
ENCODING 63104
SWIDTH 462 0
DWIDTH 9 0
BBX 7 14 1 0
BITMAP
1C
30
00
3C
FC
C0
C0
70
3C
0E
06
06
FC
F8
ENDCHAR
STARTCHAR F681
ENCODING 63105
SWIDTH 462 0
DWIDTH 9 0
BBX 7 15 1 -4
BITMAP
3C
FC
C0
C0
70
3C
0E
06
06
FC
F8
00
18
30
30
ENDCHAR
STARTCHAR F682
ENCODING 63106
SWIDTH 462 0
DWIDTH 9 0
BBX 7 16 1 -5
BITMAP
3E
7E
C0
C0
70
3C
0E
06
06
FE
FC
30
38
0C
0C
78
ENDCHAR
STARTCHAR F683
ENCODING 63107
SWIDTH 462 0
DWIDTH 9 0
BBX 7 14 1 0
BITMAP
6C
38
00
3C
FC
C0
C0
70
3C
0E
06
06
FC
F8
ENDCHAR
STARTCHAR F684
ENCODING 63108
SWIDTH 462 0
DWIDTH 9 0
BBX 7 14 1 0
BITMAP
38
6C
00
3C
FC
C0
C0
70
3C
0E
06
06
FC
F8
ENDCHAR
STARTCHAR F685
ENCODING 63109
SWIDTH 462 0
DWIDTH 9 0
BBX 9 14 0 0
BITMAP
3700
1C00
0000
FF80
FF80
0C00
0C00
0C00
0C00
0C00
0C00
0C00
0C00
0C00
ENDCHAR
STARTCHAR F686
ENCODING 63110
SWIDTH 462 0
DWIDTH 9 0
BBX 9 16 0 -5
BITMAP
FF80
FF80
0C00
0C00
0C00
0C00
0C00
0C00
0C00
0C00
0C00
0000
0C00
1800
1800
1800
ENDCHAR
STARTCHAR F687
ENCODING 63111
SWIDTH 462 0
DWIDTH 9 0
BBX 9 16 0 -5
BITMAP
FF80
FF80
0C00
0C00
0C00
0C00
0C00
0C00
0C00
0C00
0C00
0000
0C00
1800
1800
1800
ENDCHAR
STARTCHAR F688
ENCODING 63112
SWIDTH 617 0
DWIDTH 12 0
BBX 9 14 1 0
BITMAP
1980
3300
0000
C180
C180
C180
C180
C180
C180
C180
C180
E380
7F00
3E00
ENDCHAR
STARTCHAR F689
ENCODING 63113
SWIDTH 617 0
DWIDTH 12 0
BBX 9 14 1 0
BITMAP
3800
0C00
0000
C180
C180
C180
C180
C180
C180
C180
C180
E380
7F00
3E00
ENDCHAR
STARTCHAR F68A
ENCODING 63114
SWIDTH 617 0
DWIDTH 12 0
BBX 9 14 1 0
BITMAP
0E00
1800
0000
C180
C180
C180
C180
C180
C180
C180
C180
E380
7F00
3E00
ENDCHAR
STARTCHAR F68B
ENCODING 63115
SWIDTH 617 0
DWIDTH 12 0
BBX 9 14 1 0
BITMAP
1C00
7600
0000
C180
C180
C180
C180
C180
C180
C180
C180
E380
7F00
3E00
ENDCHAR
STARTCHAR F68C
ENCODING 63116
SWIDTH 617 0
DWIDTH 12 0
BBX 8 14 1 0
BITMAP
66
66
00
C3
C3
C3
C3
C3
C3
C3
C3
E3
7F
3C
ENDCHAR
STARTCHAR F68D
ENCODING 63117
SWIDTH 617 0
DWIDTH 12 0
BBX 9 13 1 0
BITMAP
7F00
0000
C180
C180
C180
C180
C180
C180
C180
C180
E380
7F00
3E00
ENDCHAR
STARTCHAR F68E
ENCODING 63118
SWIDTH 617 0
DWIDTH 12 0
BBX 9 16 1 -5
BITMAP
C180
C180
C180
C180
C180
C180
C180
C180
E380
7F00
3F00
0C00
1800
1000
1800
1E00
ENDCHAR
STARTCHAR F68F
ENCODING 63119
SWIDTH 617 0
DWIDTH 12 0
BBX 9 15 1 0
BITMAP
1C00
3200
3200
1C00
C180
C180
C180
C180
C180
C180
C180
C180
E180
7F00
3E00
ENDCHAR
STARTCHAR F690
ENCODING 63120
SWIDTH 617 0
DWIDTH 12 0
BBX 9 14 1 0
BITMAP
7D00
4F00
0000
C180
C180
C180
C180
C180
C180
C180
C180
E380
7F00
3E00
ENDCHAR
STARTCHAR F691
ENCODING 63121
SWIDTH 617 0
DWIDTH 12 0
BBX 9 14 1 0
BITMAP
6300
3E00
0000
C180
C180
C180
C180
C180
C180
C180
C180
E380
7F00
3E00
ENDCHAR
STARTCHAR F692
ENCODING 63122
SWIDTH 822 0
DWIDTH 16 0
BBX 14 14 1 0
BITMAP
0700
0380
0000
C30C
C30C
C70C
C798
4598
6D98
6C90
68D0
28F0
3870
3860
ENDCHAR
STARTCHAR F693
ENCODING 63123
SWIDTH 822 0
DWIDTH 16 0
BBX 14 14 1 0
BITMAP
0380
0600
0000
C30C
C30C
C70C
C798
4598
6D98
6C90
68D0
28F0
3870
3860
ENDCHAR
STARTCHAR F694
ENCODING 63124
SWIDTH 822 0
DWIDTH 16 0
BBX 14 14 1 0
BITMAP
0700
0DC0
0000
C30C
C30C
C70C
C798
4598
6D98
6C90
68D0
28F0
3870
3860
ENDCHAR
STARTCHAR F695
ENCODING 63125
SWIDTH 822 0
DWIDTH 16 0
BBX 14 14 1 0
BITMAP
0CC0
0CC0
0000
C30C
C30C
C38C
4788
6798
6498
6CD8
2CD0
3850
3870
3870
ENDCHAR
STARTCHAR F696
ENCODING 63126
SWIDTH 514 0
DWIDTH 10 0
BBX 10 14 0 0
BITMAP
1800
0C00
0000
C0C0
6180
6100
3300
1200
1E00
0C00
0C00
0C00
0C00
0C00
ENDCHAR
STARTCHAR F697
ENCODING 63127
SWIDTH 514 0
DWIDTH 10 0
BBX 10 14 0 0
BITMAP
0600
0C00
0000
C0C0
6180
6100
3300
1200
1E00
0C00
0C00
0C00
0C00
0C00
ENDCHAR
STARTCHAR F698
ENCODING 63128
SWIDTH 514 0
DWIDTH 10 0
BBX 10 14 0 0
BITMAP
1E00
3300
0000
C1C0
6180
6100
3300
1A00
1E00
0C00
0C00
0C00
0C00
0C00
ENDCHAR
STARTCHAR F699
ENCODING 63129
SWIDTH 514 0
DWIDTH 10 0
BBX 10 14 0 0
BITMAP
3300
3300
0000
E0C0
6180
3180
3300
1A00
1E00
0C00
0C00
0C00
0C00
0C00
ENDCHAR
STARTCHAR F69A
ENCODING 63130
SWIDTH 462 0
DWIDTH 9 0
BBX 8 14 1 0
BITMAP
18
18
00
FF
FE
06
0C
18
18
30
30
60
FF
FF
ENDCHAR
STARTCHAR F69B
ENCODING 63131
SWIDTH 462 0
DWIDTH 9 0
BBX 8 14 1 0
BITMAP
0E
18
00
FF
FE
06
0C
18
18
30
30
60
FF
FF
ENDCHAR
STARTCHAR F69D
ENCODING 63133
SWIDTH 462 0
DWIDTH 9 0
BBX 8 14 1 0
BITMAP
66
3C
00
FF
FE
06
0C
18
18
30
30
60
FF
FF
ENDCHAR
STARTCHAR F69E
ENCODING 63134
SWIDTH 977 0
DWIDTH 19 0
BBX 17 11 1 0
BITMAP
781800
CC3000
CC2000
CC6000
CCC000
CD9F00
799180
033180
063180
061180
0C0F00
ENDCHAR
STARTCHAR F69F
ENCODING 63135
SWIDTH 1337 0
DWIDTH 26 0
BBX 25 11 1 0
BITMAP
78180000
CC300000
CC200000
CC600000
CCC00000
CD9F1F00
79919100
0331B180
0631B180
06119100
0C0F1E00
ENDCHAR
STARTCHAR F6A0
ENCODING 63136
SWIDTH 360 0
DWIDTH 7 0
BBX 5 11 1 0
BITMAP
18
18
30
30
30
60
60
60
C0
C0
C0
ENDCHAR
STARTCHAR F6A1
ENCODING 63137
SWIDTH 360 0
DWIDTH 7 0
BBX 5 11 1 0
BITMAP
80
C0
C0
40
60
60
30
30
30
18
18
ENDCHAR
STARTCHAR F6A2
ENCODING 63138
SWIDTH 668 0
DWIDTH 13 0
BBX 11 11 1 0
BITMAP
0F80
38C0
6060
4F20
D920
9120
B320
9360
DFC0
6000
3E00
ENDCHAR
STARTCHAR F6A3
ENCODING 63139
SWIDTH 257 0
DWIDTH 5 0
BBX 3 12 1 -1
BITMAP
60
60
40
C0
C0
C0
C0
C0
C0
40
60
60
ENDCHAR
STARTCHAR F6A4
ENCODING 63140
SWIDTH 257 0
DWIDTH 5 0
BBX 3 12 1 -1
BITMAP
C0
C0
60
60
60
60
60
60
60
60
C0
C0
ENDCHAR
STARTCHAR F6A5
ENCODING 63141
SWIDTH 308 0
DWIDTH 6 0
BBX 4 11 1 0
BITMAP
30
60
60
60
60
C0
60
60
60
60
30
ENDCHAR
STARTCHAR F6A6
ENCODING 63142
SWIDTH 308 0
DWIDTH 6 0
BBX 4 11 1 0
BITMAP
C0
60
60
60
60
30
60
60
60
60
C0
ENDCHAR
STARTCHAR F6A7
ENCODING 63143
SWIDTH 308 0
DWIDTH 6 0
BBX 4 12 1 0
BITMAP
F0
F0
C0
C0
C0
C0
C0
C0
C0
C0
C0
F0
ENDCHAR
STARTCHAR F6A8
ENCODING 63144
SWIDTH 308 0
DWIDTH 6 0
BBX 4 12 1 0
BITMAP
F0
F0
30
30
30
30
30
30
30
30
30
F0
ENDCHAR
STARTCHAR F6A9
ENCODING 63145
SWIDTH 462 0
DWIDTH 9 0
BBX 7 8 1 5
BITMAP
10
10
92
C6
00
2C
64
04
ENDCHAR
STARTCHAR F6AA
ENCODING 63146
SWIDTH 257 0
DWIDTH 5 0
BBX 3 5 1 6
BITMAP
C0
C0
40
60
60
ENDCHAR
STARTCHAR F6AB
ENCODING 63147
SWIDTH 257 0
DWIDTH 5 0
BBX 3 5 1 6
BITMAP
60
60
40
C0
C0
ENDCHAR
STARTCHAR F6AC
ENCODING 63148
SWIDTH 462 0
DWIDTH 9 0
BBX 7 5 1 6
BITMAP
CC
CC
4C
64
66
ENDCHAR
STARTCHAR F6AD
ENCODING 63149
SWIDTH 462 0
DWIDTH 9 0
BBX 7 5 1 6
BITMAP
66
66
4C
CC
CC
ENDCHAR
STARTCHAR F800
ENCODING 63488
SWIDTH 617 0
DWIDTH 12 0
BBX 10 13 1 0
BITMAP
1E00
3F00
6180
E1C0
C0C0
C0C0
C0C0
C0C0
C0C0
C1C0
6180
7F80
1E00
ENDCHAR
STARTCHAR F801
ENCODING 63489
SWIDTH 462 0
DWIDTH 9 0
BBX 8 13 1 0
BITMAP
08
38
F8
D8
18
18
18
18
18
18
18
FF
FF
ENDCHAR
STARTCHAR F802
ENCODING 63490
SWIDTH 514 0
DWIDTH 10 0
BBX 9 13 1 0
BITMAP
7C00
FE00
0700
0300
0300
0300
0600
0E00
1C00
1800
3000
7F80
FF80
ENDCHAR
STARTCHAR F803
ENCODING 63491
SWIDTH 514 0
DWIDTH 10 0
BBX 9 15 0 -2
BITMAP
7F80
7F00
0600
0600
0C00
0800
1E00
0700
0180
0180
0180
0180
0300
FF00
7C00
ENDCHAR
STARTCHAR F804
ENCODING 63492
SWIDTH 617 0
DWIDTH 12 0
BBX 10 14 1 -1
BITMAP
0400
0C00
0C00
1800
1800
3000
3300
6300
6300
C300
FFC0
0300
0300
0300
ENDCHAR
STARTCHAR F805
ENCODING 63493
SWIDTH 514 0
DWIDTH 10 0
BBX 8 15 1 -2
BITMAP
7F
7F
60
60
60
78
7E
07
03
03
03
03
06
FE
78
ENDCHAR
STARTCHAR F806
ENCODING 63494
SWIDTH 565 0
DWIDTH 11 0
BBX 9 14 1 0
BITMAP
0E00
1C00
3000
6000
6000
DE00
FF00
E380
C180
C180
C180
E380
7F00
3E00
ENDCHAR
STARTCHAR F807
ENCODING 63495
SWIDTH 514 0
DWIDTH 10 0
BBX 10 14 0 -1
BITMAP
FFC0
FF80
0180
0300
0300
0600
0600
0E00
0C00
0C00
1800
1800
3000
3000
ENDCHAR
STARTCHAR F808
ENCODING 63496
SWIDTH 565 0
DWIDTH 11 0
BBX 10 14 1 0
BITMAP
3E00
7F00
6180
4180
6180
3300
1E00
7300
C180
C180
C1C0
E180
7F80
3E00
ENDCHAR
STARTCHAR F809
ENCODING 63497
SWIDTH 565 0
DWIDTH 11 0
BBX 9 15 1 -2
BITMAP
1C00
7F00
6300
C180
C180
C180
C180
E380
7F80
3980
0300
0300
0E00
3C00
3000
ENDCHAR
STARTCHAR F80A
ENCODING 63498
SWIDTH 462 0
DWIDTH 9 0
BBX 7 8 1 8
BITMAP
7C
EC
C6
C6
C6
C6
6C
38
ENDCHAR
STARTCHAR F80B
ENCODING 63499
SWIDTH 462 0
DWIDTH 9 0
BBX 6 8 2 8
BITMAP
30
F0
B0
30
30
30
30
FC
ENDCHAR
STARTCHAR F80C
ENCODING 63500
SWIDTH 462 0
DWIDTH 9 0
BBX 6 8 1 8
BITMAP
78
1C
0C
0C
18
30
60
FC
ENDCHAR
STARTCHAR F80D
ENCODING 63501
SWIDTH 462 0
DWIDTH 9 0
BBX 6 8 2 8
BITMAP
F8
18
30
38
0C
0C
1C
F0
ENDCHAR
STARTCHAR F80E
ENCODING 63502
SWIDTH 462 0
DWIDTH 9 0
BBX 7 8 1 8
BITMAP
10
30
20
68
4C
FE
0C
0C
ENDCHAR
STARTCHAR F80F
ENCODING 63503
SWIDTH 462 0
DWIDTH 9 0
BBX 6 8 1 8
BITMAP
7C
60
40
78
0C
0C
9C
F8
ENDCHAR
STARTCHAR F810
ENCODING 63504
SWIDTH 462 0
DWIDTH 9 0
BBX 7 8 1 8
BITMAP
18
70
60
FC
C6
C6
6E
7C
ENDCHAR
STARTCHAR F811
ENCODING 63505
SWIDTH 462 0
DWIDTH 9 0
BBX 6 8 2 8
BITMAP
FC
18
18
30
30
60
60
40
ENDCHAR
STARTCHAR F812
ENCODING 63506
SWIDTH 462 0
DWIDTH 9 0
BBX 6 8 1 8
BITMAP
78
4C
4C
38
6C
C4
CC
78
ENDCHAR
STARTCHAR F813
ENCODING 63507
SWIDTH 462 0
DWIDTH 9 0
BBX 7 8 1 8
BITMAP
7C
C6
C6
C6
7E
0C
38
30
ENDCHAR
STARTCHAR F814
ENCODING 63508
SWIDTH 462 0
DWIDTH 9 0
BBX 7 8 1 -2
BITMAP
38
6C
C6
C6
C6
C6
C6
7C
ENDCHAR
STARTCHAR F815
ENCODING 63509
SWIDTH 462 0
DWIDTH 9 0
BBX 6 8 2 -2
BITMAP
10
70
F0
30
30
30
30
FC
ENDCHAR
STARTCHAR F816
ENCODING 63510
SWIDTH 462 0
DWIDTH 9 0
BBX 5 7 2 -2
BITMAP
F8
18
18
38
30
60
F8
ENDCHAR
STARTCHAR F817
ENCODING 63511
SWIDTH 462 0
DWIDTH 9 0
BBX 6 7 2 -2
BITMAP
F8
10
30
78
0C
0C
F8
ENDCHAR
STARTCHAR F818
ENCODING 63512
SWIDTH 462 0
DWIDTH 9 0
BBX 7 8 1 -2
BITMAP
30
30
60
6C
CC
FE
0C
08
ENDCHAR
STARTCHAR F819
ENCODING 63513
SWIDTH 462 0
DWIDTH 9 0
BBX 6 7 1 -2
BITMAP
7C
60
78
0C
0C
0C
F8
ENDCHAR
STARTCHAR F81A
ENCODING 63514
SWIDTH 462 0
DWIDTH 9 0
BBX 7 8 1 -2
BITMAP
18
38
60
FC
C6
C6
C6
7C
ENDCHAR
STARTCHAR F81B
ENCODING 63515
SWIDTH 462 0
DWIDTH 9 0
BBX 5 7 2 -3
BITMAP
F8
18
18
30
30
60
60
ENDCHAR
STARTCHAR F81C
ENCODING 63516
SWIDTH 462 0
DWIDTH 9 0
BBX 6 8 1 -2
BITMAP
78
4C
4C
78
6C
C4
C4
7C
ENDCHAR
STARTCHAR F81D
ENCODING 63517
SWIDTH 462 0
DWIDTH 9 0
BBX 7 9 1 -3
BITMAP
78
EC
C6
C6
CE
7E
0C
38
20
ENDCHAR
STARTCHAR F83C
ENCODING 63548
SWIDTH 617 0
DWIDTH 12 0
BBX 10 10 1 1
BITMAP
3F00
6180
C0C0
C0C0
C0C0
C0C0
C0C0
6180
7F80
1E00
ENDCHAR
STARTCHAR F83D
ENCODING 63549
SWIDTH 514 0
DWIDTH 10 0
BBX 8 11 1 0
BITMAP
08
38
F8
D8
18
18
18
18
18
FF
FF
ENDCHAR
STARTCHAR F83E
ENCODING 63550
SWIDTH 514 0
DWIDTH 10 0
BBX 8 11 1 0
BITMAP
30
FC
0E
06
06
0C
0C
18
30
7F
FF
ENDCHAR
STARTCHAR F83F
ENCODING 63551
SWIDTH 514 0
DWIDTH 10 0
BBX 8 11 1 0
BITMAP
FE
FE
0C
0C
18
3E
03
03
03
FE
FC
ENDCHAR
STARTCHAR F840
ENCODING 63552
SWIDTH 565 0
DWIDTH 11 0
BBX 10 11 1 0
BITMAP
0C00
0C00
1800
1800
3300
3300
6300
7FC0
FFC0
0300
0300
ENDCHAR
STARTCHAR F841
ENCODING 63553
SWIDTH 514 0
DWIDTH 10 0
BBX 8 11 1 0
BITMAP
7E
7E
60
60
60
7E
07
03
03
FE
FC
ENDCHAR
STARTCHAR F842
ENCODING 63554
SWIDTH 514 0
DWIDTH 10 0
BBX 8 11 1 0
BITMAP
0C
3C
60
40
FC
F6
C3
C3
C3
66
3C
ENDCHAR
STARTCHAR F843
ENCODING 63555
SWIDTH 514 0
DWIDTH 10 0
BBX 8 11 1 0
BITMAP
FF
FF
06
06
0C
0C
18
18
30
70
60
ENDCHAR
STARTCHAR F844
ENCODING 63556
SWIDTH 514 0
DWIDTH 10 0
BBX 9 11 1 0
BITMAP
3E00
7700
4300
6300
7E00
3E00
6700
C300
C380
E700
7E00
ENDCHAR
STARTCHAR F845
ENCODING 63557
SWIDTH 514 0
DWIDTH 10 0
BBX 8 10 1 0
BITMAP
7E
E7
C3
C3
C7
7F
03
06
1C
38
ENDCHAR
STARTCHAR FB00
ENCODING 64256
SWIDTH 720 0
DWIDTH 14 0
BBX 13 14 1 0
BITMAP
1E78
3EF0
30C0
30C0
FFF0
FFF0
30C0
30C0
30C0
30C0
30C0
30C0
30C0
30C0
ENDCHAR
STARTCHAR FB01
ENCODING 64257
SWIDTH 617 0
DWIDTH 12 0
BBX 10 14 0 0
BITMAP
0F80
3F80
3000
3000
FFC0
FFC0
30C0
30C0
30C0
30C0
30C0
30C0
30C0
30C0
ENDCHAR
STARTCHAR FB02
ENCODING 64258
SWIDTH 617 0
DWIDTH 12 0
BBX 11 14 1 0
BITMAP
0F80
3F80
3180
3180
FD80
FD80
3180
3180
3180
3180
3180
3180
31E0
30E0
ENDCHAR
STARTCHAR FB03
ENCODING 64259
SWIDTH 925 0
DWIDTH 18 0
BBX 16 14 0 0
BITMAP
1E3E
3EFE
30C0
30C0
FFFF
FFFF
30C3
30C3
30C3
30C3
30C3
30C3
30C3
30C3
ENDCHAR
STARTCHAR FB04
ENCODING 64260
SWIDTH 977 0
DWIDTH 19 0
BBX 18 14 1 0
BITMAP
1E3F00
3EFF00
30C300
30C300
FFF300
FFF300
30C300
30C300
30C300
30C300
30C300
30C300
30C3C0
30C1C0
ENDCHAR
ENDFONT
